solid DIY Perks 3D Printed Speaker - Sketchup Model
facet normal -2.3838267372535397e-11 0.3368898533922326 -0.9415440651830163
  outer loop
    vertex 179.092028665863 384.90313445025174 63.737021451714746
    vertex 252.092028665413 383.97914689969565 63.40641341964284
    vertex 179.09202866587032 383.9791468991454 63.406413419505505
  endloop
endfacet
facet normal -2.3838267372535397e-11 0.3368898533922326 -0.9415440651830163
  outer loop
    vertex 252.092028665413 383.97914689969565 63.40641341964284
    vertex 179.092028665863 384.90313445025174 63.737021451714746
    vertex 252.09202866540565 384.9031344508063 63.7370214518537
  endloop
endfacet
facet normal 1.559971398123753e-12 -0.42755509343031817 0.9039892931234264
  outer loop
    vertex 250.09202866545408 384.13684455632364 65.58700890777767
    vertex 179.0920286659056 384.84633701560733 65.92257384990474
    vertex 179.0920286659114 384.13684455578414 65.58700890764783
  endloop
endfacet
facet normal 1.559971398123753e-12 -0.42755509343031817 0.9039892931234264
  outer loop
    vertex 179.0920286659056 384.84633701560733 65.92257384990474
    vertex 250.09202866545408 384.13684455632364 65.58700890777767
    vertex 250.09202866544825 384.84633701615104 65.92257385003656
  endloop
endfacet
facet normal 6.029900688112452e-13 0.7074639013560121 -0.7067494805644579
  outer loop
    vertex 179.0920286657905 395.11243497090425 72.97581677682814
    vertex 252.09202866541537 387.3040747356823 65.15956342630025
    vertex 179.0920286658727 387.3040747354067 65.15956342636744
  endloop
endfacet
facet normal 6.029900688112452e-13 0.7074639013560121 -0.7067494805644579
  outer loop
    vertex 252.09202866541537 387.3040747356823 65.15956342630025
    vertex 179.0920286657905 395.11243497090425 72.97581677682814
    vertex 250.09202866533118 395.1124349712979 72.9758167771904
  endloop
endfacet
facet normal 6.029900688112452e-13 0.7074639013560121 -0.7067494805644579
  outer loop
    vertex 252.09202866541537 387.3040747356823 65.15956342630025
    vertex 250.09202866533118 395.1124349712979 72.9758167771904
    vertex 252.0920286653332 395.11243497143624 72.97581677701749
  endloop
endfacet
facet normal 2.3101490254116395e-12 -0.5141027441932354 0.8577286100002639
  outer loop
    vertex 250.09202866544825 384.84633701615104 65.92257385003656
    vertex 179.09202866589987 385.5195219592776 66.32606537724264
    vertex 179.0920286659056 384.84633701560733 65.92257384990474
  endloop
endfacet
facet normal 2.3101490254116395e-12 -0.5141027441932354 0.8577286100002639
  outer loop
    vertex 179.09202866589987 385.5195219592776 66.32606537724264
    vertex 250.09202866544825 384.84633701615104 65.92257385003656
    vertex 250.09202866544254 385.51952195980766 66.32606537736635
  endloop
endfacet
facet normal 3.016811096480562e-12 -0.5956993044924486 0.8032075314806337
  outer loop
    vertex 250.09202866544254 385.51952195980766 66.32606537736635
    vertex 179.09202866590923 386.0821240395037 66.74331951737618
    vertex 179.09202866589987 385.5195219592776 66.32606537724264
  endloop
endfacet
facet normal 3.016811096480562e-12 -0.5956993044924486 0.8032075314806337
  outer loop
    vertex 179.09202866590923 386.0821240395037 66.74331951737618
    vertex 250.09202866544254 385.51952195980766 66.32606537736635
    vertex 250.09202866545192 386.08212403947306 66.74331951708393
  endloop
endfacet
facet normal -2.5006217129779274e-11 0.5956993044924275 -0.8032075314806493
  outer loop
    vertex 179.0920286658727 387.3040747354067 65.15956342636744
    vertex 252.0920286653912 386.63200245734214 64.661120653935
    vertex 179.09202866584855 386.63200245679695 64.66112065380227
  endloop
endfacet
facet normal -2.5006217129779274e-11 0.5956993044924275 -0.8032075314806493
  outer loop
    vertex 252.0920286653912 386.63200245734214 64.661120653935
    vertex 179.0920286658727 387.3040747354067 65.15956342636744
    vertex 252.09202866541537 387.3040747356823 65.15956342630025
  endloop
endfacet
facet normal -2.4570492501000655e-11 0.42755509343030645 -0.9039892931234318
  outer loop
    vertex 179.09202866585574 385.7902674948608 64.15660413334413
    vertex 252.09202866540565 384.9031344508063 63.7370214518537
    vertex 179.092028665863 384.90313445025174 63.737021451714746
  endloop
endfacet
facet normal -2.4570492501000655e-11 0.42755509343030645 -0.9039892931234318
  outer loop
    vertex 252.09202866540565 384.9031344508063 63.7370214518537
    vertex 179.09202866585574 385.7902674948608 64.15660413334413
    vertex 252.0920286653984 385.7902674954197 64.15660413348508
  endloop
endfacet
facet normal 8.010092344425399e-13 -0.3368898533922381 0.9415440651830145
  outer loop
    vertex 250.0920286654599 383.39787738057925 65.3226022244327
    vertex 179.0920286659114 384.13684455578414 65.58700890764783
    vertex 179.0920286659172 383.3978773800442 65.32260222430443
  endloop
endfacet
facet normal 8.010092344425399e-13 -0.3368898533922381 0.9415440651830145
  outer loop
    vertex 179.0920286659114 384.13684455578414 65.58700890764783
    vertex 250.0920286654599 383.39787738057925 65.3226022244327
    vertex 250.09202866545408 384.13684455632364 65.58700890777767
  endloop
endfacet
facet normal -2.5298611552619824e-11 0.5141027441932262 -0.8577286100002696
  outer loop
    vertex 179.09202866584855 386.63200245679695 64.66112065380227
    vertex 252.0920286653984 385.7902674954197 64.15660413348508
    vertex 179.09202866585574 385.7902674948608 64.15660413334413
  endloop
endfacet
facet normal -2.5298611552619824e-11 0.5141027441932262 -0.8577286100002696
  outer loop
    vertex 252.0920286653984 385.7902674954197 64.15660413348508
    vertex 179.09202866584855 386.63200245679695 64.66112065380227
    vertex 252.0920286653912 386.63200245734214 64.661120653935
  endloop
endfacet
facet normal 1.8355483492433156e-12 -0.7074639023640625 0.7067494795553882
  outer loop
    vertex 250.09202866534736 392.23196798468445 72.92229510744349
    vertex 179.09202866580745 392.2854356057549 72.97581677682872
    vertex 179.0920286658047 392.23196798416336 72.92229510725902
  endloop
endfacet
facet normal 1.8355483492433156e-12 -0.7074639023640625 0.7067494795553882
  outer loop
    vertex 179.09202866580745 392.2854356057549 72.97581677682872
    vertex 250.09202866534736 392.23196798468445 72.92229510744349
    vertex 250.0920286653481 392.28543560614844 72.975816777191
  endloop
endfacet
facet normal -2.237152822512017e-11 0.14673047445538476 -0.9891765099647777
  outer loop
    vertex 179.09202866587762 383.027203346762 63.16796397279531
    vertex 252.0920286654276 382.0564715304374 63.023969510241166
    vertex 179.0920286658849 382.05647152989627 63.02396951010564
  endloop
endfacet
facet normal -2.237152822512017e-11 0.14673047445538476 -0.9891765099647777
  outer loop
    vertex 252.0920286654276 382.0564715304374 63.023969510241166
    vertex 179.09202866587762 383.027203346762 63.16796397279531
    vertex 252.0920286654203 383.02720334730776 63.16796397293156
  endloop
endfacet
facet normal -2.167067635439677e-11 0.04906767432743471 -0.9987954562051717
  outer loop
    vertex 179.0920286658849 382.05647152989627 63.02396951010564
    vertex 252.09202866543464 381.07630012713855 62.975816776962944
    vertex 179.09202866589195 381.07630012660064 62.9758167768276
  endloop
endfacet
facet normal -2.167067635439677e-11 0.04906767432743471 -0.9987954562051717
  outer loop
    vertex 252.09202866543464 381.07630012713855 62.975816776962944
    vertex 179.0920286658849 382.05647152989627 63.02396951010564
    vertex 252.0920286654276 382.0564715304374 63.023969510241166
  endloop
endfacet
facet normal -2.309972583935802e-11 0.24298017990320778 -0.9700312531945581
  outer loop
    vertex 179.09202866587032 383.9791468991454 63.406413419505505
    vertex 252.0920286654203 383.02720334730776 63.16796397293156
    vertex 179.09202866587762 383.027203346762 63.16796397279531
  endloop
endfacet
facet normal -2.309972583935802e-11 0.24298017990320778 -0.9700312531945581
  outer loop
    vertex 252.0920286654203 383.02720334730776 63.16796397293156
    vertex 179.09202866587032 383.9791468991454 63.406413419505505
    vertex 252.092028665413 383.97914689969565 63.40641341964284
  endloop
endfacet
facet normal -2.1756360910340572e-12 0.04906767432739657 0.9987954562051735
  outer loop
    vertex 250.09202866575677 343.205410846849 65.01673934212982
    vertex 179.0920286662086 344.0384087965373 64.97581677684542
    vertex 179.0920286662141 343.205410846333 65.01673934200338
  endloop
endfacet
facet normal -2.1756360910340572e-12 0.04906767432739657 0.9987954562051735
  outer loop
    vertex 179.0920286662086 344.0384087965373 64.97581677684542
    vertex 250.09202866575677 343.205410846849 65.01673934212982
    vertex 250.09202866575123 344.0384087970575 64.97581677697168
  endloop
endfacet
facet normal -1.4545453917443605e-12 -0.04906767432740085 0.9987954562051733
  outer loop
    vertex 250.09202866547753 381.0272028829061 64.97581677695389
    vertex 179.0920286659289 381.8602008325866 65.01673934198553
    vertex 179.0920286659349 381.0272028823833 64.97581677682761
  endloop
endfacet
facet normal -1.4545453917443605e-12 -0.04906767432740085 0.9987954562051733
  outer loop
    vertex 179.0920286659289 381.8602008325866 65.01673934198553
    vertex 250.09202866547753 381.0272028829061 64.97581677695389
    vertex 250.09202866547153 381.8602008331127 65.01673934211195
  endloop
endfacet
facet normal -7.13376121029762e-13 -0.14673047445536605 0.9891765099647805
  outer loop
    vertex 250.09202866547153 381.8602008331127 65.01673934211195
    vertex 179.09202866592307 382.6365521462503 65.13190018077451
    vertex 179.0920286659289 381.8602008325866 65.01673934198553
  endloop
endfacet
facet normal -7.13376121029762e-13 -0.14673047445536605 0.9891765099647805
  outer loop
    vertex 179.09202866592307 382.6365521462503 65.13190018077451
    vertex 250.09202866547153 381.8602008331127 65.01673934211195
    vertex 250.0920286654657 382.63655214678096 65.13190018090164
  endloop
endfacet
facet normal -2.1318231169152038e-11 -4.821561285197743e-13 -1.0
  outer loop
    vertex 179.09202866589195 381.07630012660064 62.9758167768276
    vertex 252.09202866570905 343.98931155285425 62.97581677698082
    vertex 179.09202866616639 343.989311552319 62.975816776845484
  endloop
endfacet
facet normal -2.1318231169152038e-11 -4.821561285197743e-13 -1.0
  outer loop
    vertex 252.09202866570905 343.98931155285425 62.97581677698082
    vertex 179.09202866589195 381.07630012660064 62.9758167768276
    vertex 252.09202866543464 381.07630012713855 62.975816776962944
  endloop
endfacet
facet normal 4.0787411228022594e-14 -0.24298017990323809 0.9700312531945505
  outer loop
    vertex 250.0920286654657 382.63655214678096 65.13190018090164
    vertex 179.0920286659172 383.3978773800442 65.32260222430443
    vertex 179.09202866592307 382.6365521462503 65.13190018077451
  endloop
endfacet
facet normal 4.0787411228022594e-14 -0.24298017990323809 0.9700312531945505
  outer loop
    vertex 179.0920286659172 383.3978773800442 65.32260222430443
    vertex 250.0920286654657 382.63655214678096 65.13190018090164
    vertex 250.0920286654599 383.39787738057925 65.3226022244327
  endloop
endfacet
facet normal -1.818346119503159e-12 4.809954522477199e-13 1.0
  outer loop
    vertex 250.09202866575123 344.0384087970575 64.97581677697168
    vertex 179.0920286659349 381.0272028823833 64.97581677682761
    vertex 179.0920286662086 344.0384087965373 64.97581677684542
  endloop
endfacet
facet normal -1.818346119503159e-12 4.809954522477199e-13 1.0
  outer loop
    vertex 179.0920286659349 381.0272028823833 64.97581677682761
    vertex 250.09202866575123 344.0384087970575 64.97581677697168
    vertex 250.09202866547753 381.0272028829061 64.97581677695389
  endloop
endfacet
facet normal -2.0968871633464074e-11 -0.049067674327434405 -0.9987954562051717
  outer loop
    vertex 179.09202866616639 343.989311552319 62.975816776845484
    vertex 252.09202866571553 343.0091401495544 63.02396951025913
    vertex 179.09202866617287 343.0091401490233 63.02396951012352
  endloop
endfacet
facet normal -2.0968871633464074e-11 -0.049067674327434405 -0.9987954562051717
  outer loop
    vertex 252.09202866571553 343.0091401495544 63.02396951025913
    vertex 179.09202866616639 343.989311552319 62.975816776845484
    vertex 252.09202866570905 343.98931155285425 62.97581677698082
  endloop
endfacet
facet normal -2.0330315507388012e-11 -0.14673047445536208 -0.9891765099647809
  outer loop
    vertex 179.09202866617287 343.0091401490233 63.02396951012352
    vertex 252.09202866572173 342.03840833268407 63.167963972949444
    vertex 179.09202866617903 342.0384083321576 63.167963972813205
  endloop
endfacet
facet normal -2.0330315507388012e-11 -0.14673047445536208 -0.9891765099647809
  outer loop
    vertex 252.09202866572173 342.03840833268407 63.167963972949444
    vertex 179.09202866617287 343.0091401490233 63.02396951012352
    vertex 252.09202866571553 343.0091401495544 63.02396951025913
  endloop
endfacet
facet normal -1.9167987663642134e-11 -0.3368898533922175 -0.9415440651830217
  outer loop
    vertex 179.0920286661849 341.0864647797742 63.40641341952339
    vertex 252.09202866573304 340.1624772291855 63.73702145187158
    vertex 179.09202866619034 340.1624772286679 63.73702145173264
  endloop
endfacet
facet normal -1.9167987663642134e-11 -0.3368898533922175 -0.9415440651830217
  outer loop
    vertex 252.09202866573304 340.1624772291855 63.73702145187158
    vertex 179.0920286661849 341.0864647797742 63.40641341952339
    vertex 252.09202866572755 341.0864647802962 63.4064134196608
  endloop
endfacet
facet normal -4.718022441480551e-12 0.4275550934303343 0.9039892931234187
  outer loop
    vertex 250.09202866577473 340.21927466381055 65.92257385005445
    vertex 179.0920286662281 340.92876712313546 65.58700890766568
    vertex 179.09202866623212 340.21927466331226 65.92257384992259
  endloop
endfacet
facet normal -4.718022441480551e-12 0.4275550934303343 0.9039892931234187
  outer loop
    vertex 179.0920286662281 340.92876712313546 65.58700890766568
    vertex 250.09202866577473 340.21927466381055 65.92257385005445
    vertex 250.09202866577078 340.92876712363807 65.58700890779551
  endloop
endfacet
facet normal -1.8654861075712788e-11 -0.4275550934303051 -0.9039892931234325
  outer loop
    vertex 179.09202866619034 340.1624772286679 63.73702145173264
    vertex 252.092028665738 339.27534418457213 64.15660413350295
    vertex 179.09202866619535 339.2753441840587 64.15660413336202
  endloop
endfacet
facet normal -1.8654861075712788e-11 -0.4275550934303051 -0.9039892931234325
  outer loop
    vertex 252.092028665738 339.27534418457213 64.15660413350295
    vertex 179.09202866619034 340.1624772286679 63.73702145173264
    vertex 252.09202866573304 340.1624772291855 63.73702145187158
  endloop
endfacet
facet normal -3.527433463879397e-12 0.24298017990322196 0.9700312531945545
  outer loop
    vertex 250.0920286657664 341.66773429938235 65.32260222445058
    vertex 179.09202866621902 342.4290595326693 65.13190018079234
    vertex 179.0920286662237 341.66773429887536 65.32260222432228
  endloop
endfacet
facet normal -3.527433463879397e-12 0.24298017990322196 0.9700312531945545
  outer loop
    vertex 179.09202866621902 342.4290595326693 65.13190018079234
    vertex 250.0920286657664 341.66773429938235 65.32260222445058
    vertex 250.0920286657617 342.42905953318075 65.13190018091952
  endloop
endfacet
facet normal -4.145789131245879e-12 0.3368898533922185 0.9415440651830214
  outer loop
    vertex 250.09202866577078 340.92876712363807 65.58700890779551
    vertex 179.0920286662237 341.66773429887536 65.32260222432228
    vertex 179.0920286662281 340.92876712313546 65.58700890766568
  endloop
endfacet
facet normal -4.145789131245879e-12 0.3368898533922185 0.9415440651830214
  outer loop
    vertex 179.0920286662237 341.66773429887536 65.32260222432228
    vertex 250.09202866577078 340.92876712363807 65.58700890779551
    vertex 250.0920286657664 341.66773429938235 65.32260222445058
  endloop
endfacet
facet normal -5.238344792881627e-12 0.514102744193203 0.8577286100002834
  outer loop
    vertex 250.09202866577834 339.546089720154 66.32606537738414
    vertex 179.09202866623212 340.21927466331226 65.92257384992259
    vertex 179.0920286662357 339.546089719642 66.32606537726049
  endloop
endfacet
facet normal -5.238344792881627e-12 0.514102744193203 0.8577286100002834
  outer loop
    vertex 179.09202866623212 340.21927466331226 65.92257384992259
    vertex 250.09202866577834 339.546089720154 66.32606537738414
    vertex 250.09202866577473 340.21927466381055 65.92257385005445
  endloop
endfacet
facet normal -2.8684000468906913e-12 0.14673047445536683 0.9891765099647802
  outer loop
    vertex 250.0920286657617 342.42905953318075 65.13190018091952
    vertex 179.0920286662141 343.205410846333 65.01673934200338
    vertex 179.09202866621902 342.4290595326693 65.13190018079234
  endloop
endfacet
facet normal -2.8684000468906913e-12 0.14673047445536683 0.9891765099647802
  outer loop
    vertex 179.0920286662141 343.205410846333 65.01673934200338
    vertex 250.0920286657617 342.42905953318075 65.13190018091952
    vertex 250.09202866575677 343.205410846849 65.01673934212982
  endloop
endfacet
facet normal -5.729799397919681e-12 0.5956993044924581 0.8032075314806266
  outer loop
    vertex 250.0920286657919 339.10198393383354 66.65543667641131
    vertex 179.0920286662357 339.546089719642 66.32606537726049
    vertex 179.0920286662492 339.10198393332564 66.6554366762846
  endloop
endfacet
facet normal -5.729799397919681e-12 0.5956993044924581 0.8032075314806266
  outer loop
    vertex 179.0920286662357 339.546089719642 66.32606537726049
    vertex 250.0920286657919 339.10198393383354 66.65543667641131
    vertex 250.09202866577834 339.546089720154 66.32606537738414
  endloop
endfacet
facet normal -1.817836281441532e-11 -0.5141027441932415 -0.8577286100002602
  outer loop
    vertex 179.09202866619535 339.2753441840587 64.15660413336202
    vertex 252.09202866574253 338.4336092226497 64.66112065395293
    vertex 179.0920286661998 338.43360922212264 64.66112065382016
  endloop
endfacet
facet normal -1.817836281441532e-11 -0.5141027441932415 -0.8577286100002602
  outer loop
    vertex 252.09202866574253 338.4336092226497 64.66112065395293
    vertex 179.09202866619535 339.2753441840587 64.15660413336202
    vertex 252.092028665738 339.27534418457213 64.15660413350295
  endloop
endfacet
facet normal -1.9728120986242365e-11 -0.24298017990322693 -0.9700312531945533
  outer loop
    vertex 179.09202866617903 342.0384083321576 63.167963972813205
    vertex 252.09202866572755 341.0864647802962 63.4064134196608
    vertex 179.0920286661849 341.0864647797742 63.40641341952339
  endloop
endfacet
facet normal -1.9728120986242365e-11 -0.24298017990322693 -0.9700312531945533
  outer loop
    vertex 252.09202866572755 341.0864647802962 63.4064134196608
    vertex 179.09202866617903 342.0384083321576 63.167963972813205
    vertex 252.09202866572173 342.03840833268407 63.167963972949444
  endloop
endfacet
facet normal -2.46563186725797e-12 0.7071067811650887 0.7071067812080063
  outer loop
    vertex 250.0920286657919 339.10198393383354 66.65543667641131
    vertex 179.09202866625944 332.78160383277253 72.97581677684116
    vertex 250.09202866580515 332.781603832228 72.97581677724624
  endloop
endfacet
facet normal -2.46563186725797e-12 0.7071067811650887 0.7071067812080063
  outer loop
    vertex 179.09202866625944 332.78160383277253 72.97581677684116
    vertex 250.0920286657919 339.10198393383354 66.65543667641131
    vertex 179.0920286662492 339.10198393332564 66.6554366762846
  endloop
endfacet
facet normal -1.643644888791506e-11 -1.0 3.88577876849424e-16
  outer loop
    vertex 252.09202866580114 329.9531767085158 72.97581677701106
    vertex 250.0920286657575 329.9531767074821 78.9758167772476
    vertex 250.0920286658042 329.9531767074821 72.97581677724683
  endloop
endfacet
facet normal -1.643644888791506e-11 -1.0 3.88577876849424e-16
  outer loop
    vertex 250.0920286657575 329.9531767074821 78.9758167772476
    vertex 252.09202866580114 329.9531767085158 72.97581677701106
    vertex 252.09202866575444 329.9531767085158 78.97581677703606
  endloop
endfacet
facet normal -1.4681401520902653e-11 -0.7071067811867379 -0.7071067811863572
  outer loop
    vertex 252.092028665762 337.79208903095514 65.13690445456777
    vertex 179.09202866625844 329.95317670802666 72.97581677684174
    vertex 179.09202866621936 337.7920890304322 65.13690445443198
  endloop
endfacet
facet normal -1.4681401520902653e-11 -0.7071067811867379 -0.7071067811863572
  outer loop
    vertex 179.09202866625844 329.95317670802666 72.97581677684174
    vertex 252.092028665762 337.79208903095514 65.13690445456777
    vertex 250.0920286658042 329.9531767074821 72.97581677724683
  endloop
endfacet
facet normal -1.4681401520902653e-11 -0.7071067811867379 -0.7071067811863572
  outer loop
    vertex 250.0920286658042 329.9531767074821 72.97581677724683
    vertex 252.092028665762 337.79208903095514 65.13690445456777
    vertex 252.09202866580114 329.9531767085158 72.97581677701106
  endloop
endfacet
facet normal 7.368317856278304e-11 1.6333955448750377e-12 1.0
  outer loop
    vertex 252.09202866575444 329.9531767085158 78.97581677703606
    vertex 250.0920286653018 395.1124349712979 78.97581677718968
    vertex 250.0920286657575 329.9531767074821 78.9758167772476
  endloop
endfacet
facet normal 7.368317856278304e-11 1.6333955448750377e-12 1.0
  outer loop
    vertex 250.0920286653018 395.1124349712979 78.97581677718968
    vertex 252.09202866575444 329.9531767085158 78.97581677703606
    vertex 252.09202866530381 395.11243497143624 78.97581677701517
  endloop
endfacet
facet normal 1.0 7.2711253817894295e-12 1.8653151845441747e-12
  outer loop
    vertex 252.09202866580114 329.9531767085158 72.97581677701106
    vertex 252.09202866530381 395.11243497143624 78.97581677701517
    vertex 252.09202866575444 329.9531767085158 78.97581677703606
  endloop
endfacet
facet normal 1.0 7.2711253817894295e-12 1.8653151845441747e-12
  outer loop
    vertex 252.09202866530381 395.11243497143624 78.97581677701517
    vertex 252.09202866580114 329.9531767085158 72.97581677701106
    vertex 252.0920286653332 395.11243497143624 72.97581677701749
  endloop
endfacet
facet normal 1.0 7.2711253817894295e-12 1.8653151845441747e-12
  outer loop
    vertex 252.0920286653332 395.11243497143624 72.97581677701749
    vertex 252.09202866580114 329.9531767085158 72.97581677701106
    vertex 252.09202866541537 387.3040747356823 65.15956342630025
  endloop
endfacet
facet normal 1.0 7.2711253817894295e-12 1.8653151845441747e-12
  outer loop
    vertex 252.09202866541537 387.3040747356823 65.15956342630025
    vertex 252.09202866580114 329.9531767085158 72.97581677701106
    vertex 252.092028665762 337.79208903095514 65.13690445456777
  endloop
endfacet
facet normal 1.0 7.2711253817894295e-12 1.8653151845441747e-12
  outer loop
    vertex 252.09202866541537 387.3040747356823 65.15956342630025
    vertex 252.092028665762 337.79208903095514 65.13690445456777
    vertex 252.0920286653912 386.63200245734214 64.661120653935
  endloop
endfacet
facet normal 1.0 7.2711253817894295e-12 1.8653151845441747e-12
  outer loop
    vertex 252.0920286653912 386.63200245734214 64.661120653935
    vertex 252.092028665762 337.79208903095514 65.13690445456777
    vertex 252.09202866574253 338.4336092226497 64.66112065395293
  endloop
endfacet
facet normal 1.0 7.2711253817894295e-12 1.8653151845441747e-12
  outer loop
    vertex 252.0920286653912 386.63200245734214 64.661120653935
    vertex 252.09202866574253 338.4336092226497 64.66112065395293
    vertex 252.092028665738 339.27534418457213 64.15660413350295
  endloop
endfacet
facet normal 1.0 7.2711253817894295e-12 1.8653151845441747e-12
  outer loop
    vertex 252.0920286653912 386.63200245734214 64.661120653935
    vertex 252.092028665738 339.27534418457213 64.15660413350295
    vertex 252.0920286653984 385.7902674954197 64.15660413348508
  endloop
endfacet
facet normal 1.0 7.2711253817894295e-12 1.8653151845441747e-12
  outer loop
    vertex 252.0920286653984 385.7902674954197 64.15660413348508
    vertex 252.092028665738 339.27534418457213 64.15660413350295
    vertex 252.09202866573304 340.1624772291855 63.73702145187158
  endloop
endfacet
facet normal 1.0 7.2711253817894295e-12 1.8653151845441747e-12
  outer loop
    vertex 252.0920286653984 385.7902674954197 64.15660413348508
    vertex 252.09202866573304 340.1624772291855 63.73702145187158
    vertex 252.09202866540565 384.9031344508063 63.7370214518537
  endloop
endfacet
facet normal 1.0 7.2711253817894295e-12 1.8653151845441747e-12
  outer loop
    vertex 252.09202866540565 384.9031344508063 63.7370214518537
    vertex 252.09202866573304 340.1624772291855 63.73702145187158
    vertex 252.09202866572755 341.0864647802962 63.4064134196608
  endloop
endfacet
facet normal 1.0 7.2711253817894295e-12 1.8653151845441747e-12
  outer loop
    vertex 252.09202866540565 384.9031344508063 63.7370214518537
    vertex 252.09202866572755 341.0864647802962 63.4064134196608
    vertex 252.092028665413 383.97914689969565 63.40641341964284
  endloop
endfacet
facet normal 1.0 7.2711253817894295e-12 1.8653151845441747e-12
  outer loop
    vertex 252.092028665413 383.97914689969565 63.40641341964284
    vertex 252.09202866572755 341.0864647802962 63.4064134196608
    vertex 252.09202866572173 342.03840833268407 63.167963972949444
  endloop
endfacet
facet normal 1.0 7.2711253817894295e-12 1.8653151845441747e-12
  outer loop
    vertex 252.092028665413 383.97914689969565 63.40641341964284
    vertex 252.09202866572173 342.03840833268407 63.167963972949444
    vertex 252.0920286654203 383.02720334730776 63.16796397293156
  endloop
endfacet
facet normal 1.0 7.2711253817894295e-12 1.8653151845441747e-12
  outer loop
    vertex 252.0920286654203 383.02720334730776 63.16796397293156
    vertex 252.09202866572173 342.03840833268407 63.167963972949444
    vertex 252.09202866571553 343.0091401495544 63.02396951025913
  endloop
endfacet
facet normal 1.0 7.2711253817894295e-12 1.8653151845441747e-12
  outer loop
    vertex 252.0920286654203 383.02720334730776 63.16796397293156
    vertex 252.09202866571553 343.0091401495544 63.02396951025913
    vertex 252.0920286654276 382.0564715304374 63.023969510241166
  endloop
endfacet
facet normal 1.0 7.2711253817894295e-12 1.8653151845441747e-12
  outer loop
    vertex 252.0920286654276 382.0564715304374 63.023969510241166
    vertex 252.09202866571553 343.0091401495544 63.02396951025913
    vertex 252.09202866570905 343.98931155285425 62.97581677698082
  endloop
endfacet
facet normal 1.0 7.2711253817894295e-12 1.8653151845441747e-12
  outer loop
    vertex 252.0920286654276 382.0564715304374 63.023969510241166
    vertex 252.09202866570905 343.98931155285425 62.97581677698082
    vertex 252.09202866543464 381.07630012713855 62.975816776962944
  endloop
endfacet
facet normal -1.6744090999902808e-11 -0.5956993044924593 -0.8032075314806257
  outer loop
    vertex 179.0920286661998 338.43360922212264 64.66112065382016
    vertex 252.092028665762 337.79208903095514 65.13690445456777
    vertex 179.09202866621936 337.7920890304322 65.13690445443198
  endloop
endfacet
facet normal -1.6744090999902808e-11 -0.5956993044924593 -0.8032075314806257
  outer loop
    vertex 252.092028665762 337.79208903095514 65.13690445456777
    vertex 179.0920286661998 338.43360922212264 64.66112065382016
    vertex 252.09202866574253 338.4336092226497 64.66112065395293
  endloop
endfacet
facet normal -4.828918356978676e-12 1.0 -3.885780484015653e-16
  outer loop
    vertex 250.0920286653018 395.1124349712979 78.97581677718968
    vertex 252.0920286653332 395.11243497143624 72.97581677701749
    vertex 250.09202866533118 395.1124349712979 72.9758167771904
  endloop
endfacet
facet normal -4.828918356978676e-12 1.0 -3.885780484015653e-16
  outer loop
    vertex 252.0920286653332 395.11243497143624 72.97581677701749
    vertex 250.0920286653018 395.1124349712979 78.97581677718968
    vertex 252.09202866530381 395.11243497143624 78.97581677701517
  endloop
endfacet
facet normal 2.970854715544696e-12 -0.7087756181407929 0.7054339962952857
  outer loop
    vertex 179.09202866590923 386.0821240395037 66.74331951737618
    vertex 250.09202866534736 392.23196798468445 72.92229510744349
    vertex 179.0920286658047 392.23196798416336 72.92229510725902
  endloop
endfacet
facet normal 2.970854715544696e-12 -0.7087756181407929 0.7054339962952857
  outer loop
    vertex 250.09202866534736 392.23196798468445 72.92229510744349
    vertex 179.09202866590923 386.0821240395037 66.74331951737618
    vertex 250.09202866545192 386.08212403947306 66.74331951708393
  endloop
endfacet
facet normal -1.0 -7.382448610297637e-12 -5.4889657212387776e-12
  outer loop
    vertex 250.0920286653018 395.1124349712979 78.97581677718968
    vertex 250.0920286658042 329.9531767074821 72.97581677724683
    vertex 250.0920286657575 329.9531767074821 78.9758167772476
  endloop
endfacet
facet normal -1.0 -7.382448610297637e-12 -5.4889657212387776e-12
  outer loop
    vertex 250.0920286658042 329.9531767074821 72.97581677724683
    vertex 250.0920286653018 395.1124349712979 78.97581677718968
    vertex 250.09202866580515 332.781603832228 72.97581677724624
  endloop
endfacet
facet normal -1.0 -7.382448610297637e-12 -5.4889657212387776e-12
  outer loop
    vertex 250.09202866580515 332.781603832228 72.97581677724624
    vertex 250.0920286653018 395.1124349712979 78.97581677718968
    vertex 250.09202866533118 395.1124349712979 72.9758167771904
  endloop
endfacet
facet normal -1.0 -7.382448610297637e-12 -5.4889657212387776e-12
  outer loop
    vertex 250.09202866580515 332.781603832228 72.97581677724624
    vertex 250.09202866533118 395.1124349712979 72.9758167771904
    vertex 250.0920286653481 392.28543560614844 72.975816777191
  endloop
endfacet
facet normal -1.0 -7.382448610297637e-12 -5.4889657212387776e-12
  outer loop
    vertex 250.0920286653481 392.28543560614844 72.975816777191
    vertex 250.0920286657919 339.10198393383354 66.65543667641131
    vertex 250.09202866580515 332.781603832228 72.97581677724624
  endloop
endfacet
facet normal -1.0 -7.382448610297637e-12 -5.4889657212387776e-12
  outer loop
    vertex 250.0920286657919 339.10198393383354 66.65543667641131
    vertex 250.0920286653481 392.28543560614844 72.975816777191
    vertex 250.09202866534736 392.23196798468445 72.92229510744349
  endloop
endfacet
facet normal -1.0 -7.382448610297637e-12 -5.4889657212387776e-12
  outer loop
    vertex 250.0920286657919 339.10198393383354 66.65543667641131
    vertex 250.09202866534736 392.23196798468445 72.92229510744349
    vertex 250.09202866545192 386.08212403947306 66.74331951708393
  endloop
endfacet
facet normal -1.0 -7.382448610297637e-12 -5.4889657212387776e-12
  outer loop
    vertex 250.0920286657919 339.10198393383354 66.65543667641131
    vertex 250.09202866545192 386.08212403947306 66.74331951708393
    vertex 250.09202866544254 385.51952195980766 66.32606537736635
  endloop
endfacet
facet normal -1.0 -7.382448610297637e-12 -5.4889657212387776e-12
  outer loop
    vertex 250.0920286657919 339.10198393383354 66.65543667641131
    vertex 250.09202866544254 385.51952195980766 66.32606537736635
    vertex 250.09202866577834 339.546089720154 66.32606537738414
  endloop
endfacet
facet normal -1.0 -7.382448610297637e-12 -5.4889657212387776e-12
  outer loop
    vertex 250.09202866577834 339.546089720154 66.32606537738414
    vertex 250.09202866544254 385.51952195980766 66.32606537736635
    vertex 250.09202866577473 340.21927466381055 65.92257385005445
  endloop
endfacet
facet normal -1.0 -7.382448610297637e-12 -5.4889657212387776e-12
  outer loop
    vertex 250.09202866577473 340.21927466381055 65.92257385005445
    vertex 250.09202866544254 385.51952195980766 66.32606537736635
    vertex 250.09202866544825 384.84633701615104 65.92257385003656
  endloop
endfacet
facet normal -1.0 -7.382448610297637e-12 -5.4889657212387776e-12
  outer loop
    vertex 250.09202866577473 340.21927466381055 65.92257385005445
    vertex 250.09202866544825 384.84633701615104 65.92257385003656
    vertex 250.09202866577078 340.92876712363807 65.58700890779551
  endloop
endfacet
facet normal -1.0 -7.382448610297637e-12 -5.4889657212387776e-12
  outer loop
    vertex 250.09202866577078 340.92876712363807 65.58700890779551
    vertex 250.09202866544825 384.84633701615104 65.92257385003656
    vertex 250.09202866545408 384.13684455632364 65.58700890777767
  endloop
endfacet
facet normal -1.0 -7.382448610297637e-12 -5.4889657212387776e-12
  outer loop
    vertex 250.09202866577078 340.92876712363807 65.58700890779551
    vertex 250.09202866545408 384.13684455632364 65.58700890777767
    vertex 250.0920286657664 341.66773429938235 65.32260222445058
  endloop
endfacet
facet normal -1.0 -7.382448610297637e-12 -5.4889657212387776e-12
  outer loop
    vertex 250.0920286657664 341.66773429938235 65.32260222445058
    vertex 250.09202866545408 384.13684455632364 65.58700890777767
    vertex 250.0920286654599 383.39787738057925 65.3226022244327
  endloop
endfacet
facet normal -1.0 -7.382448610297637e-12 -5.4889657212387776e-12
  outer loop
    vertex 250.0920286657664 341.66773429938235 65.32260222445058
    vertex 250.0920286654599 383.39787738057925 65.3226022244327
    vertex 250.0920286657617 342.42905953318075 65.13190018091952
  endloop
endfacet
facet normal -1.0 -7.382448610297637e-12 -5.4889657212387776e-12
  outer loop
    vertex 250.0920286657617 342.42905953318075 65.13190018091952
    vertex 250.0920286654599 383.39787738057925 65.3226022244327
    vertex 250.0920286654657 382.63655214678096 65.13190018090164
  endloop
endfacet
facet normal -1.0 -7.382448610297637e-12 -5.4889657212387776e-12
  outer loop
    vertex 250.0920286657617 342.42905953318075 65.13190018091952
    vertex 250.0920286654657 382.63655214678096 65.13190018090164
    vertex 250.09202866575677 343.205410846849 65.01673934212982
  endloop
endfacet
facet normal -1.0 -7.382448610297637e-12 -5.4889657212387776e-12
  outer loop
    vertex 250.09202866575677 343.205410846849 65.01673934212982
    vertex 250.0920286654657 382.63655214678096 65.13190018090164
    vertex 250.09202866547153 381.8602008331127 65.01673934211195
  endloop
endfacet
facet normal -1.0 -7.382448610297637e-12 -5.4889657212387776e-12
  outer loop
    vertex 250.09202866575677 343.205410846849 65.01673934212982
    vertex 250.09202866547153 381.8602008331127 65.01673934211195
    vertex 250.09202866575123 344.0384087970575 64.97581677697168
  endloop
endfacet
facet normal -1.0 -7.382448610297637e-12 -5.4889657212387776e-12
  outer loop
    vertex 250.09202866575123 344.0384087970575 64.97581677697168
    vertex 250.09202866547153 381.8602008331127 65.01673934211195
    vertex 250.09202866547753 381.0272028829061 64.97581677695389
  endloop
endfacet
facet normal -1.0 -7.349758242401495e-12 -4.3406468833737133e-13
  outer loop
    vertex 179.0920286657905 395.11243497090425 72.97581677682814
    vertex 179.0920286658047 392.23196798416336 72.92229510725902
    vertex 179.09202866580745 392.2854356057549 72.97581677682872
  endloop
endfacet
facet normal -1.0 -7.349758242401495e-12 -4.3406468833737133e-13
  outer loop
    vertex 179.0920286658047 392.23196798416336 72.92229510725902
    vertex 179.0920286657905 395.11243497090425 72.97581677682814
    vertex 179.0920286658727 387.3040747354067 65.15956342636744
  endloop
endfacet
facet normal -1.0 -7.349758242401495e-12 -4.3406468833737133e-13
  outer loop
    vertex 179.0920286658047 392.23196798416336 72.92229510725902
    vertex 179.0920286658727 387.3040747354067 65.15956342636744
    vertex 179.09202866590923 386.0821240395037 66.74331951737618
  endloop
endfacet
facet normal -1.0 -7.349758242401495e-12 -4.3406468833737133e-13
  outer loop
    vertex 179.09202866590923 386.0821240395037 66.74331951737618
    vertex 179.0920286658727 387.3040747354067 65.15956342636744
    vertex 179.09202866589987 385.5195219592776 66.32606537724264
  endloop
endfacet
facet normal -1.0 -7.349758242401495e-12 -4.3406468833737133e-13
  outer loop
    vertex 179.09202866589987 385.5195219592776 66.32606537724264
    vertex 179.0920286658727 387.3040747354067 65.15956342636744
    vertex 179.0920286659056 384.84633701560733 65.92257384990474
  endloop
endfacet
facet normal -1.0 -7.349758242401495e-12 -4.3406468833737133e-13
  outer loop
    vertex 179.0920286659056 384.84633701560733 65.92257384990474
    vertex 179.0920286658727 387.3040747354067 65.15956342636744
    vertex 179.0920286659114 384.13684455578414 65.58700890764783
  endloop
endfacet
facet normal -1.0 -7.349758242401495e-12 -4.3406468833737133e-13
  outer loop
    vertex 179.0920286659114 384.13684455578414 65.58700890764783
    vertex 179.0920286658727 387.3040747354067 65.15956342636744
    vertex 179.0920286659172 383.3978773800442 65.32260222430443
  endloop
endfacet
facet normal -1.0 -7.349758242401495e-12 -4.3406468833737133e-13
  outer loop
    vertex 179.0920286659172 383.3978773800442 65.32260222430443
    vertex 179.0920286658727 387.3040747354067 65.15956342636744
    vertex 179.09202866592307 382.6365521462503 65.13190018077451
  endloop
endfacet
facet normal -1.0 -7.349758242401495e-12 -4.3406468833737133e-13
  outer loop
    vertex 179.09202866592307 382.6365521462503 65.13190018077451
    vertex 179.0920286658727 387.3040747354067 65.15956342636744
    vertex 179.09202866584855 386.63200245679695 64.66112065380227
  endloop
endfacet
facet normal -1.0 -7.349758242401495e-12 -4.3406468833737133e-13
  outer loop
    vertex 179.09202866592307 382.6365521462503 65.13190018077451
    vertex 179.09202866584855 386.63200245679695 64.66112065380227
    vertex 179.0920286659289 381.8602008325866 65.01673934198553
  endloop
endfacet
facet normal -1.0 -7.349758242401495e-12 -4.3406468833737133e-13
  outer loop
    vertex 179.0920286659289 381.8602008325866 65.01673934198553
    vertex 179.09202866584855 386.63200245679695 64.66112065380227
    vertex 179.0920286659349 381.0272028823833 64.97581677682761
  endloop
endfacet
facet normal -1.0 -7.349758242401495e-12 -4.3406468833737133e-13
  outer loop
    vertex 179.0920286659349 381.0272028823833 64.97581677682761
    vertex 179.09202866584855 386.63200245679695 64.66112065380227
    vertex 179.0920286661998 338.43360922212264 64.66112065382016
  endloop
endfacet
facet normal -1.0 -7.349758242401495e-12 -4.3406468833737133e-13
  outer loop
    vertex 179.0920286661998 338.43360922212264 64.66112065382016
    vertex 179.09202866584855 386.63200245679695 64.66112065380227
    vertex 179.09202866619535 339.2753441840587 64.15660413336202
  endloop
endfacet
facet normal -1.0 -7.349758242401495e-12 -4.3406468833737133e-13
  outer loop
    vertex 179.09202866619535 339.2753441840587 64.15660413336202
    vertex 179.09202866584855 386.63200245679695 64.66112065380227
    vertex 179.09202866585574 385.7902674948608 64.15660413334413
  endloop
endfacet
facet normal -1.0 -7.349758242401495e-12 -4.3406468833737133e-13
  outer loop
    vertex 179.09202866619535 339.2753441840587 64.15660413336202
    vertex 179.09202866585574 385.7902674948608 64.15660413334413
    vertex 179.09202866619034 340.1624772286679 63.73702145173264
  endloop
endfacet
facet normal -1.0 -7.349758242401495e-12 -4.3406468833737133e-13
  outer loop
    vertex 179.09202866619034 340.1624772286679 63.73702145173264
    vertex 179.09202866585574 385.7902674948608 64.15660413334413
    vertex 179.092028665863 384.90313445025174 63.737021451714746
  endloop
endfacet
facet normal -1.0 -7.349758242401495e-12 -4.3406468833737133e-13
  outer loop
    vertex 179.09202866619034 340.1624772286679 63.73702145173264
    vertex 179.092028665863 384.90313445025174 63.737021451714746
    vertex 179.0920286661849 341.0864647797742 63.40641341952339
  endloop
endfacet
facet normal -1.0 -7.349758242401495e-12 -4.3406468833737133e-13
  outer loop
    vertex 179.0920286661849 341.0864647797742 63.40641341952339
    vertex 179.092028665863 384.90313445025174 63.737021451714746
    vertex 179.09202866587032 383.9791468991454 63.406413419505505
  endloop
endfacet
facet normal -1.0 -7.349758242401495e-12 -4.3406468833737133e-13
  outer loop
    vertex 179.0920286661849 341.0864647797742 63.40641341952339
    vertex 179.09202866587032 383.9791468991454 63.406413419505505
    vertex 179.09202866617903 342.0384083321576 63.167963972813205
  endloop
endfacet
facet normal -1.0 -7.349758242401495e-12 -4.3406468833737133e-13
  outer loop
    vertex 179.09202866617903 342.0384083321576 63.167963972813205
    vertex 179.09202866587032 383.9791468991454 63.406413419505505
    vertex 179.09202866587762 383.027203346762 63.16796397279531
  endloop
endfacet
facet normal -1.0 -7.349758242401495e-12 -4.3406468833737133e-13
  outer loop
    vertex 179.09202866617903 342.0384083321576 63.167963972813205
    vertex 179.09202866587762 383.027203346762 63.16796397279531
    vertex 179.09202866617287 343.0091401490233 63.02396951012352
  endloop
endfacet
facet normal -1.0 -7.349758242401495e-12 -4.3406468833737133e-13
  outer loop
    vertex 179.09202866617287 343.0091401490233 63.02396951012352
    vertex 179.09202866587762 383.027203346762 63.16796397279531
    vertex 179.0920286658849 382.05647152989627 63.02396951010564
  endloop
endfacet
facet normal -1.0 -7.349758242401495e-12 -4.3406468833737133e-13
  outer loop
    vertex 179.09202866617287 343.0091401490233 63.02396951012352
    vertex 179.0920286658849 382.05647152989627 63.02396951010564
    vertex 179.09202866616639 343.989311552319 62.975816776845484
  endloop
endfacet
facet normal -1.0 -7.349758242401495e-12 -4.3406468833737133e-13
  outer loop
    vertex 179.09202866616639 343.989311552319 62.975816776845484
    vertex 179.0920286658849 382.05647152989627 63.02396951010564
    vertex 179.09202866589195 381.07630012660064 62.9758167768276
  endloop
endfacet
facet normal -1.0 -7.349758242401495e-12 -4.3406468833737133e-13
  outer loop
    vertex 179.09202866625944 332.78160383277253 72.97581677684116
    vertex 179.09202866621936 337.7920890304322 65.13690445443198
    vertex 179.09202866625844 329.95317670802666 72.97581677684174
  endloop
endfacet
facet normal -1.0 -7.349758242401495e-12 -4.3406468833737133e-13
  outer loop
    vertex 179.09202866621936 337.7920890304322 65.13690445443198
    vertex 179.09202866625944 332.78160383277253 72.97581677684116
    vertex 179.0920286662492 339.10198393332564 66.6554366762846
  endloop
endfacet
facet normal -1.0 -7.349758242401495e-12 -4.3406468833737133e-13
  outer loop
    vertex 179.09202866621936 337.7920890304322 65.13690445443198
    vertex 179.0920286662492 339.10198393332564 66.6554366762846
    vertex 179.0920286662357 339.546089719642 66.32606537726049
  endloop
endfacet
facet normal -1.0 -7.349758242401495e-12 -4.3406468833737133e-13
  outer loop
    vertex 179.09202866621936 337.7920890304322 65.13690445443198
    vertex 179.0920286662357 339.546089719642 66.32606537726049
    vertex 179.09202866623212 340.21927466331226 65.92257384992259
  endloop
endfacet
facet normal -1.0 -7.349758242401495e-12 -4.3406468833737133e-13
  outer loop
    vertex 179.09202866621936 337.7920890304322 65.13690445443198
    vertex 179.09202866623212 340.21927466331226 65.92257384992259
    vertex 179.0920286662281 340.92876712313546 65.58700890766568
  endloop
endfacet
facet normal -1.0 -7.349758242401495e-12 -4.3406468833737133e-13
  outer loop
    vertex 179.09202866621936 337.7920890304322 65.13690445443198
    vertex 179.0920286662281 340.92876712313546 65.58700890766568
    vertex 179.0920286662237 341.66773429887536 65.32260222432228
  endloop
endfacet
facet normal -1.0 -7.349758242401495e-12 -4.3406468833737133e-13
  outer loop
    vertex 179.09202866621936 337.7920890304322 65.13690445443198
    vertex 179.0920286662237 341.66773429887536 65.32260222432228
    vertex 179.09202866621902 342.4290595326693 65.13190018079234
  endloop
endfacet
facet normal -1.0 -7.349758242401495e-12 -4.3406468833737133e-13
  outer loop
    vertex 179.09202866621936 337.7920890304322 65.13690445443198
    vertex 179.09202866621902 342.4290595326693 65.13190018079234
    vertex 179.0920286661998 338.43360922212264 64.66112065382016
  endloop
endfacet
facet normal -1.0 -7.349758242401495e-12 -4.3406468833737133e-13
  outer loop
    vertex 179.0920286661998 338.43360922212264 64.66112065382016
    vertex 179.09202866621902 342.4290595326693 65.13190018079234
    vertex 179.0920286662141 343.205410846333 65.01673934200338
  endloop
endfacet
facet normal -1.0 -7.349758242401495e-12 -4.3406468833737133e-13
  outer loop
    vertex 179.0920286661998 338.43360922212264 64.66112065382016
    vertex 179.0920286662141 343.205410846333 65.01673934200338
    vertex 179.0920286662086 344.0384087965373 64.97581677684542
  endloop
endfacet
facet normal -1.0 -7.349758242401495e-12 -4.3406468833737133e-13
  outer loop
    vertex 179.0920286661998 338.43360922212264 64.66112065382016
    vertex 179.0920286662086 344.0384087965373 64.97581677684542
    vertex 179.0920286659349 381.0272028823833 64.97581677682761
  endloop
endfacet
facet normal -5.705467915248401e-12 2.0776638994704675e-13 1.0
  outer loop
    vertex 250.09202866580515 332.781603832228 72.97581677724624
    vertex 179.09202866625844 329.95317670802666 72.97581677684174
    vertex 250.0920286658042 329.9531767074821 72.97581677724683
  endloop
endfacet
facet normal -5.705467915248401e-12 2.0776638994704675e-13 1.0
  outer loop
    vertex 179.09202866625844 329.95317670802666 72.97581677684174
    vertex 250.09202866580515 332.781603832228 72.97581677724624
    vertex 179.09202866625944 332.78160383277253 72.97581677684116
  endloop
endfacet
facet normal -5.102392266359664e-12 2.078711249223052e-13 1.0
  outer loop
    vertex 250.09202866533118 395.1124349712979 72.9758167771904
    vertex 179.09202866580745 392.2854356057549 72.97581677682872
    vertex 250.0920286653481 392.28543560614844 72.975816777191
  endloop
endfacet
facet normal -5.102392266359664e-12 2.078711249223052e-13 1.0
  outer loop
    vertex 179.09202866580745 392.2854356057549 72.97581677682872
    vertex 250.09202866533118 395.1124349712979 72.9758167771904
    vertex 179.0920286657905 395.11243497090425 72.97581677682814
  endloop
endfacet
endsolid DIY Perks 3D Printed Speaker - Sketchup Model
