solid DIY Perks 3D Printed Speaker - Sketchup Model
facet normal 5.690045306081471e-16 5.918825745339754e-16 -1.0
  outer loop
    vertex 559.9999999999999 170.00000000000583 9.000000000000398
    vertex 559.9999999999999 168.00000000000574 9.000000000000387
    vertex 557.9999999999992 170.00000000000546 9.000000000000398
  endloop
endfacet
facet normal 5.690045306081471e-16 5.918825745339754e-16 -1.0
  outer loop
    vertex 559.9999999999999 168.00000000000574 9.000000000000387
    vertex 559.9999999999999 170.00000000000583 9.000000000000398
    vertex 561.962706973096 169.95181824821273 9.000000000000398
  endloop
endfacet
facet normal 5.690045306081471e-16 5.918825745339754e-16 -1.0
  outer loop
    vertex 559.9999999999999 168.00000000000574 9.000000000000387
    vertex 561.962706973096 169.95181824821273 9.000000000000398
    vertex 561.8645716244408 167.9542273358024 9.000000000000398
  endloop
endfacet
facet normal 5.690045306081471e-16 5.918825745339754e-16 -1.0
  outer loop
    vertex 561.8645716244408 167.9542273358024 9.000000000000398
    vertex 561.962706973096 169.95181824821273 9.000000000000398
    vertex 563.7246513325232 167.8170196135491 9.000000000000398
  endloop
endfacet
facet normal 5.690045306081471e-16 5.918825745339754e-16 -1.0
  outer loop
    vertex 563.7246513325232 167.8170196135491 9.000000000000398
    vertex 561.962706973096 169.95181824821273 9.000000000000398
    vertex 563.9206856131822 169.80738906689368 9.000000000000398
  endloop
endfacet
facet normal 5.690045306081471e-16 5.918825745339754e-16 -1.0
  outer loop
    vertex 563.7246513325232 167.8170196135491 9.000000000000398
    vertex 563.9206856131822 169.80738906689368 9.000000000000398
    vertex 565.5757580293032 167.58870737866715 9.000000000000398
  endloop
endfacet
facet normal 5.690045306081471e-16 5.918825745339754e-16 -1.0
  outer loop
    vertex 565.5757580293032 167.58870737866715 9.000000000000398
    vertex 563.9206856131822 169.80738906689368 9.000000000000398
    vertex 565.8692189782147 169.56706039859685 9.000000000000398
  endloop
endfacet
facet normal 5.690045306081471e-16 5.918825745339754e-16 -1.0
  outer loop
    vertex 565.5757580293032 167.58870737866715 9.000000000000398
    vertex 565.8692189782147 169.56706039859685 9.000000000000398
    vertex 566.1715216686002 167.48533258089756 9.00000000000031
  endloop
endfacet
facet normal 5.690045306081471e-16 5.918825745339754e-16 -1.0
  outer loop
    vertex 566.1715216686002 167.48533258089756 9.00000000000031
    vertex 565.8692189782147 169.56706039859685 9.000000000000398
    vertex 567.8036128806442 169.23141121613477 9.000000000000398
  endloop
endfacet
facet normal 5.690045306081471e-16 5.918825745339754e-16 -1.0
  outer loop
    vertex 566.1715216686002 167.48533258089756 9.00000000000031
    vertex 567.8036128806442 169.23141121613477 9.000000000000398
    vertex 597.4853325808916 136.17152166860564 9.00000000000031
  endloop
endfacet
facet normal 5.690045306081471e-16 5.918825745339754e-16 -1.0
  outer loop
    vertex 597.4853325808916 136.17152166860564 9.00000000000031
    vertex 567.8036128806442 169.23141121613477 9.000000000000398
    vertex 569.7192071961305 168.80125012778717 9.000000000000398
  endloop
endfacet
facet normal 5.690045306081471e-16 5.918825745339754e-16 -1.0
  outer loop
    vertex 597.4853325808916 136.17152166860564 9.00000000000031
    vertex 569.7192071961305 168.80125012778717 9.000000000000398
    vertex 571.6113870901784 168.27761342929384 9.000000000000398
  endloop
endfacet
facet normal 5.690045306081471e-16 5.918825745339754e-16 -1.0
  outer loop
    vertex 597.4853325808916 136.17152166860564 9.00000000000031
    vertex 571.6113870901784 168.27761342929384 9.000000000000398
    vertex 573.4755941356883 167.66176260732618 9.000000000000398
  endloop
endfacet
facet normal 5.690045306081471e-16 5.918825745339754e-16 -1.0
  outer loop
    vertex 597.4853325808916 136.17152166860564 9.00000000000031
    vertex 573.4755941356883 167.66176260732618 9.000000000000398
    vertex 575.307337294603 166.95518130045704 9.000000000000398
  endloop
endfacet
facet normal 5.690045306081471e-16 5.918825745339754e-16 -1.0
  outer loop
    vertex 597.4853325808916 136.17152166860564 9.00000000000031
    vertex 575.307337294603 166.95518130045704 9.000000000000398
    vertex 577.1022037372109 166.15957172494322 9.000000000000398
  endloop
endfacet
facet normal 5.690045306081471e-16 5.918825745339754e-16 -1.0
  outer loop
    vertex 597.4853325808916 136.17152166860564 9.00000000000031
    vertex 577.1022037372109 166.15957172494322 9.000000000000398
    vertex 578.8558694730392 165.27685057393964 9.000000000000398
  endloop
endfacet
facet normal 5.690045306081471e-16 5.918825745339754e-16 -1.0
  outer loop
    vertex 597.4853325808916 136.17152166860564 9.00000000000031
    vertex 578.8558694730392 165.27685057393964 9.000000000000398
    vertex 580.5641097677286 164.3091444000164 9.000000000000398
  endloop
endfacet
facet normal 5.690045306081471e-16 5.918825745339754e-16 -1.0
  outer loop
    vertex 597.4853325808916 136.17152166860564 9.00000000000031
    vertex 580.5641097677286 164.3091444000164 9.000000000000398
    vertex 582.222809320784 163.2587844921074 9.000000000000398
  endloop
endfacet
facet normal 5.690045306081471e-16 5.918825745339754e-16 -1.0
  outer loop
    vertex 597.4853325808916 136.17152166860564 9.00000000000031
    vertex 582.222809320784 163.2587844921074 9.000000000000398
    vertex 583.8279721796972 162.12830125923114 9.000000000000398
  endloop
endfacet
facet normal 5.690045306081471e-16 5.918825745339754e-16 -1.0
  outer loop
    vertex 597.4853325808916 136.17152166860564 9.00000000000031
    vertex 583.8279721796972 162.12830125923114 9.000000000000398
    vertex 585.3757313665458 160.92041813451476 9.000000000000398
  endloop
endfacet
facet normal 5.690045306081471e-16 5.918825745339754e-16 -1.0
  outer loop
    vertex 597.4853325808916 136.17152166860564 9.00000000000031
    vertex 585.3757313665458 160.92041813451476 9.000000000000398
    vertex 586.8623581938807 159.6380450142036 9.000000000000398
  endloop
endfacet
facet normal 5.690045306081471e-16 5.918825745339754e-16 -1.0
  outer loop
    vertex 597.4853325808916 136.17152166860564 9.00000000000031
    vertex 586.8623581938807 159.6380450142036 9.000000000000398
    vertex 588.2842712474616 158.2842712474671 9.000000000000398
  endloop
endfacet
facet normal 5.690045306081471e-16 5.918825745339754e-16 -1.0
  outer loop
    vertex 597.4853325808916 136.17152166860564 9.00000000000031
    vertex 588.2842712474616 158.2842712474671 9.000000000000398
    vertex 589.638045014198 156.86235819388597 9.000000000000398
  endloop
endfacet
facet normal 5.690045306081471e-16 5.918825745339754e-16 -1.0
  outer loop
    vertex 597.4853325808916 136.17152166860564 9.00000000000031
    vertex 589.638045014198 156.86235819388597 9.000000000000398
    vertex 590.9204181345094 155.375731366551 9.000000000000398
  endloop
endfacet
facet normal 5.690045306081471e-16 5.918825745339754e-16 -1.0
  outer loop
    vertex 597.4853325808916 136.17152166860564 9.00000000000031
    vertex 590.9204181345094 155.375731366551 9.000000000000398
    vertex 592.1283012592255 153.82797217970273 9.000000000000398
  endloop
endfacet
facet normal 5.690045306081471e-16 5.918825745339754e-16 -1.0
  outer loop
    vertex 597.4853325808916 136.17152166860564 9.00000000000031
    vertex 592.1283012592255 153.82797217970273 9.000000000000398
    vertex 593.2587844921015 152.22280932078934 9.000000000000398
  endloop
endfacet
facet normal 5.690045306081471e-16 5.918825745339754e-16 -1.0
  outer loop
    vertex 597.4853325808916 136.17152166860564 9.00000000000031
    vertex 593.2587844921015 152.22280932078934 9.000000000000398
    vertex 594.30914440001 150.5641097677341 9.000000000000398
  endloop
endfacet
facet normal 5.690045306081471e-16 5.918825745339754e-16 -1.0
  outer loop
    vertex 597.4853325808916 136.17152166860564 9.00000000000031
    vertex 594.30914440001 150.5641097677341 9.000000000000398
    vertex 595.2768505739331 148.85586947304526 9.000000000000398
  endloop
endfacet
facet normal 5.690045306081471e-16 5.918825745339754e-16 -1.0
  outer loop
    vertex 597.4853325808916 136.17152166860564 9.00000000000031
    vertex 595.2768505739331 148.85586947304526 9.000000000000398
    vertex 596.1595717249378 147.1022037372163 9.000000000000398
  endloop
endfacet
facet normal 5.690045306081471e-16 5.918825745339754e-16 -1.0
  outer loop
    vertex 597.4853325808916 136.17152166860564 9.00000000000031
    vertex 596.1595717249378 147.1022037372163 9.000000000000398
    vertex 596.9551813004512 145.30733729460877 9.000000000000398
  endloop
endfacet
facet normal 5.690045306081471e-16 5.918825745339754e-16 -1.0
  outer loop
    vertex 597.4853325808916 136.17152166860564 9.00000000000031
    vertex 596.9551813004512 145.30733729460877 9.000000000000398
    vertex 597.6617626073205 143.4755941356938 9.000000000000398
  endloop
endfacet
facet normal 5.690045306081471e-16 5.918825745339754e-16 -1.0
  outer loop
    vertex 597.4853325808916 136.17152166860564 9.00000000000031
    vertex 597.6617626073205 143.4755941356938 9.000000000000398
    vertex 597.5887073786613 135.5757580293093 9.000000000000398
  endloop
endfacet
facet normal 5.690045306081471e-16 5.918825745339754e-16 -1.0
  outer loop
    vertex 597.5887073786613 135.5757580293093 9.000000000000398
    vertex 597.6617626073205 143.4755941356938 9.000000000000398
    vertex 597.8170196135427 133.72465133252894 9.000000000000398
  endloop
endfacet
facet normal 5.690045306081471e-16 5.918825745339754e-16 -1.0
  outer loop
    vertex 597.8170196135427 133.72465133252894 9.000000000000398
    vertex 597.6617626073205 143.4755941356938 9.000000000000398
    vertex 598.2776134292881 141.61138709018368 9.000000000000398
  endloop
endfacet
facet normal 5.690045306081471e-16 5.918825745339754e-16 -1.0
  outer loop
    vertex 597.8170196135427 133.72465133252894 9.000000000000398
    vertex 598.2776134292881 141.61138709018368 9.000000000000398
    vertex 597.9542273357965 131.86457162444728 9.000000000000387
  endloop
endfacet
facet normal 5.690045306081471e-16 5.918825745339754e-16 -1.0
  outer loop
    vertex 597.9542273357965 131.86457162444728 9.000000000000387
    vertex 598.2776134292881 141.61138709018368 9.000000000000398
    vertex 597.9999999999993 130.00000000000557 9.000000000000387
  endloop
endfacet
facet normal 5.690045306081471e-16 5.918825745339754e-16 -1.0
  outer loop
    vertex 597.9999999999993 130.00000000000557 9.000000000000387
    vertex 598.2776134292881 141.61138709018368 9.000000000000398
    vertex 600.0 128.00000000000495 9.000000000000398
  endloop
endfacet
facet normal 5.690045306081471e-16 5.918825745339754e-16 -1.0
  outer loop
    vertex 600.0 128.00000000000495 9.000000000000398
    vertex 598.2776134292881 141.61138709018368 9.000000000000398
    vertex 598.8012501277809 139.71920719613576 9.000000000000398
  endloop
endfacet
facet normal 5.690045306081471e-16 5.918825745339754e-16 -1.0
  outer loop
    vertex 600.0 128.00000000000495 9.000000000000398
    vertex 598.8012501277809 139.71920719613576 9.000000000000398
    vertex 599.2314112161289 137.8036128806506 9.000000000000398
  endloop
endfacet
facet normal 5.690045306081471e-16 5.918825745339754e-16 -1.0
  outer loop
    vertex 600.0 128.00000000000495 9.000000000000398
    vertex 599.2314112161289 137.8036128806506 9.000000000000398
    vertex 599.5670603985913 135.8692189782198 9.000000000000398
  endloop
endfacet
facet normal 5.690045306081471e-16 5.918825745339754e-16 -1.0
  outer loop
    vertex 600.0 128.00000000000495 9.000000000000398
    vertex 599.5670603985913 135.8692189782198 9.000000000000398
    vertex 599.8073890668878 133.92068561318783 9.000000000000398
  endloop
endfacet
facet normal 5.690045306081471e-16 5.918825745339754e-16 -1.0
  outer loop
    vertex 600.0 128.00000000000495 9.000000000000398
    vertex 599.8073890668878 133.92068561318783 9.000000000000398
    vertex 599.9518182482069 131.96270697310226 9.000000000000398
  endloop
endfacet
facet normal 5.690045306081471e-16 5.918825745339754e-16 -1.0
  outer loop
    vertex 600.0 128.00000000000495 9.000000000000398
    vertex 599.9518182482069 131.96270697310226 9.000000000000398
    vertex 600.0 130.00000000000557 9.000000000000398
  endloop
endfacet
facet normal 0.0 0.0 1.0
  outer loop
    vertex 559.9999999999999 168.00000000000574 101.00000000000034
    vertex 559.9999999999999 170.00000000000583 101.00000000000034
    vertex 557.9999999999992 170.00000000000546 101.00000000000034
  endloop
endfacet
facet normal 0.0 0.0 1.0
  outer loop
    vertex 559.9999999999999 170.00000000000583 101.00000000000034
    vertex 559.9999999999999 168.00000000000574 101.00000000000034
    vertex 561.8645716244408 167.9542273358024 101.00000000000034
  endloop
endfacet
facet normal 0.0 0.0 1.0
  outer loop
    vertex 559.9999999999999 170.00000000000583 101.00000000000034
    vertex 561.8645716244408 167.9542273358024 101.00000000000034
    vertex 561.962706973096 169.95181824821273 101.00000000000034
  endloop
endfacet
facet normal 0.0 0.0 1.0
  outer loop
    vertex 561.962706973096 169.95181824821273 101.00000000000034
    vertex 561.8645716244408 167.9542273358024 101.00000000000034
    vertex 563.7246513325232 167.8170196135491 101.00000000000034
  endloop
endfacet
facet normal 0.0 0.0 1.0
  outer loop
    vertex 561.962706973096 169.95181824821273 101.00000000000034
    vertex 563.7246513325232 167.8170196135491 101.00000000000034
    vertex 563.9206856131822 169.80738906689368 101.00000000000034
  endloop
endfacet
facet normal 0.0 0.0 1.0
  outer loop
    vertex 563.9206856131822 169.80738906689368 101.00000000000034
    vertex 563.7246513325232 167.8170196135491 101.00000000000034
    vertex 565.5757580293032 167.58870737866715 101.00000000000034
  endloop
endfacet
facet normal 0.0 0.0 1.0
  outer loop
    vertex 563.9206856131822 169.80738906689368 101.00000000000034
    vertex 565.5757580293032 167.58870737866715 101.00000000000034
    vertex 565.8692189782147 169.56706039859685 101.00000000000034
  endloop
endfacet
facet normal 0.0 0.0 1.0
  outer loop
    vertex 565.8692189782147 169.56706039859685 101.00000000000034
    vertex 565.5757580293032 167.58870737866715 101.00000000000034
    vertex 566.1715216686002 167.48533258089756 101.00000000000034
  endloop
endfacet
facet normal 0.0 0.0 1.0
  outer loop
    vertex 565.8692189782147 169.56706039859685 101.00000000000034
    vertex 566.1715216686002 167.48533258089756 101.00000000000034
    vertex 567.8036128806442 169.23141121613477 101.00000000000034
  endloop
endfacet
facet normal 0.0 0.0 1.0
  outer loop
    vertex 567.8036128806442 169.23141121613477 101.00000000000034
    vertex 566.1715216686002 167.48533258089756 101.00000000000034
    vertex 597.4853325808916 136.17152166860564 101.00000000000034
  endloop
endfacet
facet normal 0.0 0.0 1.0
  outer loop
    vertex 567.8036128806442 169.23141121613477 101.00000000000034
    vertex 597.4853325808916 136.17152166860564 101.00000000000034
    vertex 569.7192071961305 168.80125012778717 101.00000000000034
  endloop
endfacet
facet normal 0.0 0.0 1.0
  outer loop
    vertex 569.7192071961305 168.80125012778717 101.00000000000034
    vertex 597.4853325808916 136.17152166860564 101.00000000000034
    vertex 571.6113870901784 168.27761342929384 101.00000000000034
  endloop
endfacet
facet normal 0.0 0.0 1.0
  outer loop
    vertex 571.6113870901784 168.27761342929384 101.00000000000034
    vertex 597.4853325808916 136.17152166860564 101.00000000000034
    vertex 573.4755941356883 167.66176260732618 101.00000000000034
  endloop
endfacet
facet normal 0.0 0.0 1.0
  outer loop
    vertex 573.4755941356883 167.66176260732618 101.00000000000034
    vertex 597.4853325808916 136.17152166860564 101.00000000000034
    vertex 575.307337294603 166.95518130045704 101.00000000000034
  endloop
endfacet
facet normal 0.0 0.0 1.0
  outer loop
    vertex 575.307337294603 166.95518130045704 101.00000000000034
    vertex 597.4853325808916 136.17152166860564 101.00000000000034
    vertex 577.1022037372109 166.15957172494322 101.00000000000034
  endloop
endfacet
facet normal 0.0 0.0 1.0
  outer loop
    vertex 577.1022037372109 166.15957172494322 101.00000000000034
    vertex 597.4853325808916 136.17152166860564 101.00000000000034
    vertex 578.8558694730392 165.27685057393964 101.00000000000034
  endloop
endfacet
facet normal 0.0 0.0 1.0
  outer loop
    vertex 578.8558694730392 165.27685057393964 101.00000000000034
    vertex 597.4853325808916 136.17152166860564 101.00000000000034
    vertex 580.5641097677286 164.3091444000164 101.00000000000034
  endloop
endfacet
facet normal 0.0 0.0 1.0
  outer loop
    vertex 580.5641097677286 164.3091444000164 101.00000000000034
    vertex 597.4853325808916 136.17152166860564 101.00000000000034
    vertex 582.222809320784 163.2587844921074 101.00000000000034
  endloop
endfacet
facet normal 0.0 0.0 1.0
  outer loop
    vertex 582.222809320784 163.2587844921074 101.00000000000034
    vertex 597.4853325808916 136.17152166860564 101.00000000000034
    vertex 583.8279721796972 162.12830125923114 101.00000000000034
  endloop
endfacet
facet normal 0.0 0.0 1.0
  outer loop
    vertex 583.8279721796972 162.12830125923114 101.00000000000034
    vertex 597.4853325808916 136.17152166860564 101.00000000000034
    vertex 585.3757313665458 160.92041813451476 101.00000000000034
  endloop
endfacet
facet normal 0.0 0.0 1.0
  outer loop
    vertex 585.3757313665458 160.92041813451476 101.00000000000034
    vertex 597.4853325808916 136.17152166860564 101.00000000000034
    vertex 586.8623581938807 159.6380450142036 101.00000000000034
  endloop
endfacet
facet normal 0.0 0.0 1.0
  outer loop
    vertex 586.8623581938807 159.6380450142036 101.00000000000034
    vertex 597.4853325808916 136.17152166860564 101.00000000000034
    vertex 588.2842712474616 158.2842712474671 101.00000000000034
  endloop
endfacet
facet normal 0.0 0.0 1.0
  outer loop
    vertex 588.2842712474616 158.2842712474671 101.00000000000034
    vertex 597.4853325808916 136.17152166860564 101.00000000000034
    vertex 589.638045014198 156.86235819388597 101.00000000000034
  endloop
endfacet
facet normal 0.0 0.0 1.0
  outer loop
    vertex 589.638045014198 156.86235819388597 101.00000000000034
    vertex 597.4853325808916 136.17152166860564 101.00000000000034
    vertex 590.9204181345094 155.375731366551 101.00000000000034
  endloop
endfacet
facet normal 0.0 0.0 1.0
  outer loop
    vertex 590.9204181345094 155.375731366551 101.00000000000034
    vertex 597.4853325808916 136.17152166860564 101.00000000000034
    vertex 592.1283012592255 153.82797217970273 101.00000000000034
  endloop
endfacet
facet normal 0.0 0.0 1.0
  outer loop
    vertex 592.1283012592255 153.82797217970273 101.00000000000034
    vertex 597.4853325808916 136.17152166860564 101.00000000000034
    vertex 593.2587844921015 152.22280932078934 101.00000000000034
  endloop
endfacet
facet normal 0.0 0.0 1.0
  outer loop
    vertex 593.2587844921015 152.22280932078934 101.00000000000034
    vertex 597.4853325808916 136.17152166860564 101.00000000000034
    vertex 594.30914440001 150.5641097677341 101.00000000000034
  endloop
endfacet
facet normal 0.0 0.0 1.0
  outer loop
    vertex 594.30914440001 150.5641097677341 101.00000000000034
    vertex 597.4853325808916 136.17152166860564 101.00000000000034
    vertex 595.2768505739331 148.85586947304526 101.00000000000034
  endloop
endfacet
facet normal 0.0 0.0 1.0
  outer loop
    vertex 595.2768505739331 148.85586947304526 101.00000000000034
    vertex 597.4853325808916 136.17152166860564 101.00000000000034
    vertex 596.1595717249378 147.1022037372163 101.00000000000034
  endloop
endfacet
facet normal 0.0 0.0 1.0
  outer loop
    vertex 596.1595717249378 147.1022037372163 101.00000000000034
    vertex 597.4853325808916 136.17152166860564 101.00000000000034
    vertex 596.9551813004512 145.30733729460877 101.00000000000034
  endloop
endfacet
facet normal 0.0 0.0 1.0
  outer loop
    vertex 596.9551813004512 145.30733729460877 101.00000000000034
    vertex 597.4853325808916 136.17152166860564 101.00000000000034
    vertex 597.6617626073205 143.4755941356938 101.00000000000034
  endloop
endfacet
facet normal 0.0 0.0 1.0
  outer loop
    vertex 597.6617626073205 143.4755941356938 101.00000000000034
    vertex 597.4853325808916 136.17152166860564 101.00000000000034
    vertex 597.5887073786613 135.5757580293093 101.00000000000034
  endloop
endfacet
facet normal 0.0 0.0 1.0
  outer loop
    vertex 597.6617626073205 143.4755941356938 101.00000000000034
    vertex 597.5887073786613 135.5757580293093 101.00000000000034
    vertex 597.8170196135427 133.72465133252894 101.00000000000034
  endloop
endfacet
facet normal 0.0 0.0 1.0
  outer loop
    vertex 597.6617626073205 143.4755941356938 101.00000000000034
    vertex 597.8170196135427 133.72465133252894 101.00000000000034
    vertex 598.2776134292881 141.61138709018368 101.00000000000034
  endloop
endfacet
facet normal 0.0 0.0 1.0
  outer loop
    vertex 598.2776134292881 141.61138709018368 101.00000000000034
    vertex 597.8170196135427 133.72465133252894 101.00000000000034
    vertex 597.9542273357965 131.86457162444728 101.00000000000034
  endloop
endfacet
facet normal 0.0 0.0 1.0
  outer loop
    vertex 598.2776134292881 141.61138709018368 101.00000000000034
    vertex 597.9542273357965 131.86457162444728 101.00000000000034
    vertex 597.9999999999993 130.00000000000557 101.00000000000034
  endloop
endfacet
facet normal 0.0 0.0 1.0
  outer loop
    vertex 598.2776134292881 141.61138709018368 101.00000000000034
    vertex 597.9999999999993 130.00000000000557 101.00000000000034
    vertex 600.0 128.00000000000495 101.00000000000034
  endloop
endfacet
facet normal 0.0 0.0 1.0
  outer loop
    vertex 598.2776134292881 141.61138709018368 101.00000000000034
    vertex 600.0 128.00000000000495 101.00000000000034
    vertex 598.8012501277809 139.71920719613576 101.00000000000034
  endloop
endfacet
facet normal 0.0 0.0 1.0
  outer loop
    vertex 598.8012501277809 139.71920719613576 101.00000000000034
    vertex 600.0 128.00000000000495 101.00000000000034
    vertex 599.2314112161289 137.8036128806506 101.00000000000034
  endloop
endfacet
facet normal 0.0 0.0 1.0
  outer loop
    vertex 599.2314112161289 137.8036128806506 101.00000000000034
    vertex 600.0 128.00000000000495 101.00000000000034
    vertex 599.5670603985913 135.8692189782198 101.00000000000034
  endloop
endfacet
facet normal 0.0 0.0 1.0
  outer loop
    vertex 599.5670603985913 135.8692189782198 101.00000000000034
    vertex 600.0 128.00000000000495 101.00000000000034
    vertex 599.8073890668878 133.92068561318783 101.00000000000034
  endloop
endfacet
facet normal 0.0 0.0 1.0
  outer loop
    vertex 599.8073890668878 133.92068561318783 101.00000000000034
    vertex 600.0 128.00000000000495 101.00000000000034
    vertex 599.9518182482069 131.96270697310226 101.00000000000034
  endloop
endfacet
facet normal 0.0 0.0 1.0
  outer loop
    vertex 599.9518182482069 131.96270697310226 101.00000000000034
    vertex 600.0 128.00000000000495 101.00000000000034
    vertex 600.0 130.00000000000557 101.00000000000034
  endloop
endfacet
facet normal -0.707106781186372 -0.707106781186723 -2.615147345175659e-16
  outer loop
    vertex 559.9999999999999 168.00000000000574 101.00000000000034
    vertex 557.9999999999992 170.00000000000546 9.000000000000398
    vertex 559.9999999999999 168.00000000000574 9.000000000000387
  endloop
endfacet
facet normal -0.707106781186372 -0.707106781186723 -2.615147345175659e-16
  outer loop
    vertex 557.9999999999992 170.00000000000546 9.000000000000398
    vertex 559.9999999999999 168.00000000000574 101.00000000000034
    vertex 557.9999999999992 170.00000000000546 101.00000000000034
  endloop
endfacet
facet normal -0.02454122852287375 -0.9996988186962052 -2.0048761534225967e-16
  outer loop
    vertex 561.8645716244408 167.9542273358024 9.000000000000398
    vertex 559.9999999999999 168.00000000000574 101.00000000000034
    vertex 559.9999999999999 168.00000000000574 9.000000000000387
  endloop
endfacet
facet normal -0.02454122852287375 -0.9996988186962052 -2.0048761534225967e-16
  outer loop
    vertex 559.9999999999999 168.00000000000574 101.00000000000034
    vertex 561.8645716244408 167.9542273358024 9.000000000000398
    vertex 561.8645716244408 167.9542273358024 101.00000000000034
  endloop
endfacet
facet normal -0.07356456359975326 -0.997290456678684 -2.0852288761366037e-16
  outer loop
    vertex 563.7246513325232 167.8170196135491 101.00000000000034
    vertex 561.8645716244408 167.9542273358024 9.000000000000398
    vertex 563.7246513325232 167.8170196135491 9.000000000000398
  endloop
endfacet
facet normal -0.07356456359975326 -0.997290456678684 -2.0852288761366037e-16
  outer loop
    vertex 561.8645716244408 167.9542273358024 9.000000000000398
    vertex 563.7246513325232 167.8170196135491 101.00000000000034
    vertex 561.8645716244408 167.9542273358024 101.00000000000034
  endloop
endfacet
facet normal -0.12241067519930623 -0.992479534598699 -2.160558099843316e-16
  outer loop
    vertex 565.5757580293032 167.58870737866715 101.00000000000034
    vertex 563.7246513325232 167.8170196135491 9.000000000000398
    vertex 565.5757580293032 167.58870737866715 9.000000000000398
  endloop
endfacet
facet normal -0.12241067519930623 -0.992479534598699 -2.160558099843316e-16
  outer loop
    vertex 563.7246513325232 167.8170196135491 9.000000000000398
    vertex 565.5757580293032 167.58870737866715 101.00000000000034
    vertex 563.7246513325232 167.8170196135491 101.00000000000034
  endloop
endfacet
facet normal -0.17096188876025395 -0.9852776423889495 -5.314315944996435e-20
  outer loop
    vertex 566.1715216686002 167.48533258089756 101.00000000000034
    vertex 565.5757580293032 167.58870737866715 9.000000000000398
    vertex 566.1715216686002 167.48533258089756 9.00000000000031
  endloop
endfacet
facet normal -0.17096188876025395 -0.9852776423889495 -5.314315944996435e-20
  outer loop
    vertex 565.5757580293032 167.58870737866715 9.000000000000398
    vertex 566.1715216686002 167.48533258089756 101.00000000000034
    vertex 565.5757580293032 167.58870737866715 101.00000000000034
  endloop
endfacet
facet normal -0.9852776423889044 -0.17096188876051369 6.742151269936768e-20
  outer loop
    vertex 597.4853325808916 136.17152166860564 101.00000000000034
    vertex 597.5887073786613 135.5757580293093 9.000000000000398
    vertex 597.5887073786613 135.5757580293093 101.00000000000034
  endloop
endfacet
facet normal -0.9852776423889044 -0.17096188876051369 6.742151269936768e-20
  outer loop
    vertex 597.5887073786613 135.5757580293093 9.000000000000398
    vertex 597.4853325808916 136.17152166860564 101.00000000000034
    vertex 597.4853325808916 136.17152166860564 9.00000000000031
  endloop
endfacet
facet normal -0.9924795345987371 -0.12241067519899677 -1.962726034729241e-16
  outer loop
    vertex 597.5887073786613 135.5757580293093 101.00000000000034
    vertex 597.8170196135427 133.72465133252894 9.000000000000398
    vertex 597.8170196135427 133.72465133252894 101.00000000000034
  endloop
endfacet
facet normal -0.9924795345987371 -0.12241067519899677 -1.962726034729241e-16
  outer loop
    vertex 597.8170196135427 133.72465133252894 9.000000000000398
    vertex 597.5887073786613 135.5757580293093 101.00000000000034
    vertex 597.5887073786613 135.5757580293093 9.000000000000398
  endloop
endfacet
facet normal -0.9972904566786605 -0.07356456360007037 -1.8751965332341245e-16
  outer loop
    vertex 597.8170196135427 133.72465133252894 101.00000000000034
    vertex 597.9542273357965 131.86457162444728 9.000000000000387
    vertex 597.9542273357965 131.86457162444728 101.00000000000034
  endloop
endfacet
facet normal -0.9972904566786605 -0.07356456360007037 -1.8751965332341245e-16
  outer loop
    vertex 597.9542273357965 131.86457162444728 9.000000000000387
    vertex 597.8170196135427 133.72465133252894 101.00000000000034
    vertex 597.8170196135427 133.72465133252894 9.000000000000398
  endloop
endfacet
facet normal -0.9996988186962138 -0.024541228522525785 -1.7831495190400272e-16
  outer loop
    vertex 597.9542273357965 131.86457162444728 101.00000000000034
    vertex 597.9999999999993 130.00000000000557 9.000000000000387
    vertex 597.9999999999993 130.00000000000557 101.00000000000034
  endloop
endfacet
facet normal -0.9996988186962138 -0.024541228522525785 -1.7831495190400272e-16
  outer loop
    vertex 597.9999999999993 130.00000000000557 9.000000000000387
    vertex 597.9542273357965 131.86457162444728 101.00000000000034
    vertex 597.9542273357965 131.86457162444728 9.000000000000387
  endloop
endfacet
facet normal -0.7071067811865316 -0.7071067811865634 -2.6151473451756227e-16
  outer loop
    vertex 600.0 128.00000000000495 9.000000000000398
    vertex 597.9999999999993 130.00000000000557 101.00000000000034
    vertex 597.9999999999993 130.00000000000557 9.000000000000387
  endloop
endfacet
facet normal -0.7071067811865316 -0.7071067811865634 -2.6151473451756227e-16
  outer loop
    vertex 597.9999999999993 130.00000000000557 101.00000000000034
    vertex 600.0 128.00000000000495 9.000000000000398
    vertex 600.0 128.00000000000495 101.00000000000034
  endloop
endfacet
facet normal 1.0 0.0 1.735500830658967e-16
  outer loop
    vertex 600.0 130.00000000000557 9.000000000000398
    vertex 600.0 128.00000000000495 101.00000000000034
    vertex 600.0 128.00000000000495 9.000000000000398
  endloop
endfacet
facet normal 1.0 0.0 1.735500830658967e-16
  outer loop
    vertex 600.0 128.00000000000495 101.00000000000034
    vertex 600.0 130.00000000000557 9.000000000000398
    vertex 600.0 130.00000000000557 101.00000000000034
  endloop
endfacet
facet normal 0.9996988186962045 0.024541228522905755 1.7831495190407567e-16
  outer loop
    vertex 599.9518182482069 131.96270697310226 9.000000000000398
    vertex 600.0 130.00000000000557 101.00000000000034
    vertex 600.0 130.00000000000557 9.000000000000398
  endloop
endfacet
facet normal 0.9996988186962045 0.024541228522905755 1.7831495190407567e-16
  outer loop
    vertex 600.0 130.00000000000557 101.00000000000034
    vertex 599.9518182482069 131.96270697310226 9.000000000000398
    vertex 599.9518182482069 131.96270697310226 101.00000000000034
  endloop
endfacet
facet normal 0.9972904566786883 0.07356456359969481 1.8751965332334357e-16
  outer loop
    vertex 599.8073890668878 133.92068561318783 9.000000000000398
    vertex 599.9518182482069 131.96270697310226 101.00000000000034
    vertex 599.9518182482069 131.96270697310226 9.000000000000398
  endloop
endfacet
facet normal 0.9972904566786883 0.07356456359969481 1.8751965332334357e-16
  outer loop
    vertex 599.9518182482069 131.96270697310226 101.00000000000034
    vertex 599.8073890668878 133.92068561318783 9.000000000000398
    vertex 599.8073890668878 133.92068561318783 101.00000000000034
  endloop
endfacet
facet normal 0.992479534598716 0.12241067519916898 1.9627260347295423e-16
  outer loop
    vertex 599.5670603985913 135.8692189782198 9.000000000000398
    vertex 599.8073890668878 133.92068561318783 101.00000000000034
    vertex 599.8073890668878 133.92068561318783 9.000000000000398
  endloop
endfacet
facet normal 0.992479534598716 0.12241067519916898 1.9627260347295423e-16
  outer loop
    vertex 599.8073890668878 133.92068561318783 101.00000000000034
    vertex 599.5670603985913 135.8692189782198 9.000000000000398
    vertex 599.5670603985913 135.8692189782198 101.00000000000034
  endloop
endfacet
facet normal 0.985277642388915 0.1709618887604533 2.0455271572939563e-16
  outer loop
    vertex 599.2314112161289 137.8036128806506 9.000000000000398
    vertex 599.5670603985913 135.8692189782198 101.00000000000034
    vertex 599.5670603985913 135.8692189782198 9.000000000000398
  endloop
endfacet
facet normal 0.985277642388915 0.1709618887604533 2.0455271572939563e-16
  outer loop
    vertex 599.5670603985913 135.8692189782198 101.00000000000034
    vertex 599.2314112161289 137.8036128806506 9.000000000000398
    vertex 599.2314112161289 137.8036128806506 101.00000000000034
  endloop
endfacet
facet normal 0.9757021300384551 0.21910124015719756 2.123400425769359e-16
  outer loop
    vertex 598.8012501277809 139.71920719613576 9.000000000000398
    vertex 599.2314112161289 137.8036128806506 101.00000000000034
    vertex 599.2314112161289 137.8036128806506 9.000000000000398
  endloop
endfacet
facet normal 0.9757021300384551 0.21910124015719756 2.123400425769359e-16
  outer loop
    vertex 599.2314112161289 137.8036128806506 101.00000000000034
    vertex 598.8012501277809 139.71920719613576 9.000000000000398
    vertex 598.8012501277809 139.71920719613576 101.00000000000034
  endloop
endfacet
facet normal 0.9637760657955209 0.26671275747460615 2.1961582366299618e-16
  outer loop
    vertex 598.2776134292881 141.61138709018368 9.000000000000398
    vertex 598.8012501277809 139.71920719613576 101.00000000000034
    vertex 598.8012501277809 139.71920719613576 9.000000000000398
  endloop
endfacet
facet normal 0.9637760657955209 0.26671275747460615 2.1961582366299618e-16
  outer loop
    vertex 598.8012501277809 139.71920719613576 101.00000000000034
    vertex 598.2776134292881 141.61138709018368 9.000000000000398
    vertex 598.2776134292881 141.61138709018368 101.00000000000034
  endloop
endfacet
facet normal 0.9495281805930089 0.31368174039897534 2.263625309939278e-16
  outer loop
    vertex 597.6617626073205 143.4755941356938 9.000000000000398
    vertex 598.2776134292881 141.61138709018368 101.00000000000034
    vertex 598.2776134292881 141.61138709018368 9.000000000000398
  endloop
endfacet
facet normal 0.9495281805930089 0.31368174039897534 2.263625309939278e-16
  outer loop
    vertex 598.2776134292881 141.61138709018368 101.00000000000034
    vertex 597.6617626073205 143.4755941356938 9.000000000000398
    vertex 597.6617626073205 143.4755941356938 101.00000000000034
  endloop
endfacet
facet normal 0.932992798834771 0.35989503653490496 2.325639111606016e-16
  outer loop
    vertex 596.9551813004512 145.30733729460877 9.000000000000398
    vertex 597.6617626073205 143.4755941356938 101.00000000000034
    vertex 597.6617626073205 143.4755941356938 9.000000000000398
  endloop
endfacet
facet normal 0.932992798834771 0.35989503653490496 2.325639111606016e-16
  outer loop
    vertex 597.6617626073205 143.4755941356938 101.00000000000034
    vertex 596.9551813004512 145.30733729460877 9.000000000000398
    vertex 596.9551813004512 145.30733729460877 101.00000000000034
  endloop
endfacet
facet normal 0.9142097557035761 0.4052413140048873 2.382050244951176e-16
  outer loop
    vertex 596.1595717249378 147.1022037372163 9.000000000000398
    vertex 596.9551813004512 145.30733729460877 101.00000000000034
    vertex 596.9551813004512 145.30733729460877 9.000000000000398
  endloop
endfacet
facet normal 0.9142097557035761 0.4052413140048873 2.382050244951176e-16
  outer loop
    vertex 596.9551813004512 145.30733729460877 101.00000000000034
    vertex 596.1595717249378 147.1022037372163 9.000000000000398
    vertex 596.1595717249378 147.1022037372163 101.00000000000034
  endloop
endfacet
facet normal 0.893224301195305 0.4496113296550244 2.432722810613882e-16
  outer loop
    vertex 595.2768505739331 148.85586947304526 9.000000000000398
    vertex 596.1595717249378 147.1022037372163 101.00000000000034
    vertex 596.1595717249378 147.1022037372163 9.000000000000398
  endloop
endfacet
facet normal 0.893224301195305 0.4496113296550244 2.432722810613882e-16
  outer loop
    vertex 596.1595717249378 147.1022037372163 101.00000000000034
    vertex 595.2768505739331 148.85586947304526 9.000000000000398
    vertex 595.2768505739331 148.85586947304526 101.00000000000034
  endloop
endfacet
facet normal 0.8700869911087702 0.49289819222968034 2.4775347339433333e-16
  outer loop
    vertex 594.30914440001 150.5641097677341 9.000000000000398
    vertex 595.2768505739331 148.85586947304526 101.00000000000034
    vertex 595.2768505739331 148.85586947304526 9.000000000000398
  endloop
endfacet
facet normal 0.8700869911087702 0.49289819222968034 2.4775347339433333e-16
  outer loop
    vertex 595.2768505739331 148.85586947304526 101.00000000000034
    vertex 594.30914440001 150.5641097677341 9.000000000000398
    vertex 594.30914440001 150.5641097677341 101.00000000000034
  endloop
endfacet
facet normal 0.8448535652498349 0.5349976198868955 2.516378059092786e-16
  outer loop
    vertex 593.2587844921015 152.22280932078934 9.000000000000398
    vertex 594.30914440001 150.5641097677341 101.00000000000034
    vertex 594.30914440001 150.5641097677341 9.000000000000398
  endloop
endfacet
facet normal 0.8448535652498349 0.5349976198868955 2.516378059092786e-16
  outer loop
    vertex 594.30914440001 150.5641097677341 101.00000000000034
    vertex 593.2587844921015 152.22280932078934 9.000000000000398
    vertex 593.2587844921015 152.22280932078934 101.00000000000034
  endloop
endfacet
facet normal 0.8175848131516075 0.5758081914178116 2.5491592090894186e-16
  outer loop
    vertex 592.1283012592255 153.82797217970273 9.000000000000398
    vertex 593.2587844921015 152.22280932078934 101.00000000000034
    vertex 593.2587844921015 152.22280932078934 9.000000000000398
  endloop
endfacet
facet normal 0.8175848131516075 0.5758081914178116 2.5491592090894186e-16
  outer loop
    vertex 593.2587844921015 152.22280932078934 101.00000000000034
    vertex 592.1283012592255 153.82797217970273 9.000000000000398
    vertex 592.1283012592255 153.82797217970273 101.00000000000034
  endloop
endfacet
facet normal 0.7883464276266381 0.615231590580586 2.575799211271229e-16
  outer loop
    vertex 590.9204181345094 155.375731366551 9.000000000000398
    vertex 592.1283012592255 153.82797217970273 101.00000000000034
    vertex 592.1283012592255 153.82797217970273 9.000000000000398
  endloop
endfacet
facet normal 0.7883464276266381 0.615231590580586 2.575799211271229e-16
  outer loop
    vertex 592.1283012592255 153.82797217970273 101.00000000000034
    vertex 590.9204181345094 155.375731366551 9.000000000000398
    vertex 590.9204181345094 155.375731366551 101.00000000000034
  endloop
endfacet
facet normal 0.7572088465063977 0.6531728429538776 2.5962338875397955e-16
  outer loop
    vertex 589.638045014198 156.86235819388597 9.000000000000398
    vertex 590.9204181345094 155.375731366551 101.00000000000034
    vertex 590.9204181345094 155.375731366551 9.000000000000398
  endloop
endfacet
facet normal 0.7572088465063977 0.6531728429538776 2.5962338875397955e-16
  outer loop
    vertex 590.9204181345094 155.375731366551 101.00000000000034
    vertex 589.638045014198 156.86235819388597 9.000000000000398
    vertex 589.638045014198 156.86235819388597 101.00000000000034
  endloop
endfacet
facet normal 0.7242470829514682 0.6895405447370656 2.610414008969927e-16
  outer loop
    vertex 588.2842712474616 158.2842712474671 9.000000000000398
    vertex 589.638045014198 156.86235819388597 101.00000000000034
    vertex 589.638045014198 156.86235819388597 9.000000000000398
  endloop
endfacet
facet normal 0.7242470829514682 0.6895405447370656 2.610414008969927e-16
  outer loop
    vertex 589.638045014198 156.86235819388597 101.00000000000034
    vertex 588.2842712474616 158.2842712474671 9.000000000000398
    vertex 588.2842712474616 158.2842712474671 101.00000000000034
  endloop
endfacet
facet normal 0.6895405447371646 0.724247082951374 2.6183054144072227e-16
  outer loop
    vertex 586.8623581938807 159.6380450142036 101.00000000000034
    vertex 588.2842712474616 158.2842712474671 9.000000000000398
    vertex 586.8623581938807 159.6380450142036 9.000000000000398
  endloop
endfacet
facet normal 0.6895405447371646 0.724247082951374 2.6183054144072227e-16
  outer loop
    vertex 588.2842712474616 158.2842712474671 9.000000000000398
    vertex 586.8623581938807 159.6380450142036 101.00000000000034
    vertex 588.2842712474616 158.2842712474671 101.00000000000034
  endloop
endfacet
facet normal 0.653172842953773 0.7572088465064878 2.619889092764767e-16
  outer loop
    vertex 585.3757313665458 160.92041813451476 101.00000000000034
    vertex 586.8623581938807 159.6380450142036 9.000000000000398
    vertex 585.3757313665458 160.92041813451476 9.000000000000398
  endloop
endfacet
facet normal 0.653172842953773 0.7572088465064878 2.619889092764767e-16
  outer loop
    vertex 586.8623581938807 159.6380450142036 9.000000000000398
    vertex 585.3757313665458 160.92041813451476 101.00000000000034
    vertex 586.8623581938807 159.6380450142036 101.00000000000034
  endloop
endfacet
facet normal 0.6152315905806263 0.7883464276266069 2.615161228822647e-16
  outer loop
    vertex 583.8279721796972 162.12830125923114 101.00000000000034
    vertex 585.3757313665458 160.92041813451476 9.000000000000398
    vertex 583.8279721796972 162.12830125923114 9.000000000000398
  endloop
endfacet
facet normal 0.6152315905806263 0.7883464276266069 2.615161228822647e-16
  outer loop
    vertex 585.3757313665458 160.92041813451476 9.000000000000398
    vertex 583.8279721796972 162.12830125923114 101.00000000000034
    vertex 585.3757313665458 160.92041813451476 101.00000000000034
  endloop
endfacet
facet normal 0.5758081914179403 0.8175848131515169 2.6041332124192563e-16
  outer loop
    vertex 582.222809320784 163.2587844921074 101.00000000000034
    vertex 583.8279721796972 162.12830125923114 9.000000000000398
    vertex 582.222809320784 163.2587844921074 9.000000000000398
  endloop
endfacet
facet normal 0.5758081914179403 0.8175848131515169 2.6041332124192563e-16
  outer loop
    vertex 583.8279721796972 162.12830125923114 9.000000000000398
    vertex 582.222809320784 163.2587844921074 101.00000000000034
    vertex 583.8279721796972 162.12830125923114 101.00000000000034
  endloop
endfacet
facet normal 0.534997619887027 0.8448535652497515 2.5868316110119147e-16
  outer loop
    vertex 580.5641097677286 164.3091444000164 101.00000000000034
    vertex 582.222809320784 163.2587844921074 9.000000000000398
    vertex 580.5641097677286 164.3091444000164 9.000000000000398
  endloop
endfacet
facet normal 0.534997619887027 0.8448535652497515 2.5868316110119147e-16
  outer loop
    vertex 582.222809320784 163.2587844921074 9.000000000000398
    vertex 580.5641097677286 164.3091444000164 101.00000000000034
    vertex 582.222809320784 163.2587844921074 101.00000000000034
  endloop
endfacet
facet normal 0.49289819222967146 0.8700869911087754 2.5632981056739905e-16
  outer loop
    vertex 578.8558694730392 165.27685057393964 101.00000000000034
    vertex 580.5641097677286 164.3091444000164 9.000000000000398
    vertex 578.8558694730392 165.27685057393964 9.000000000000398
  endloop
endfacet
facet normal 0.49289819222967146 0.8700869911087754 2.5632981056739905e-16
  outer loop
    vertex 580.5641097677286 164.3091444000164 9.000000000000398
    vertex 578.8558694730392 165.27685057393964 101.00000000000034
    vertex 580.5641097677286 164.3091444000164 101.00000000000034
  endloop
endfacet
facet normal 0.44961132965466777 0.8932243011954847 2.533589390681251e-16
  outer loop
    vertex 577.1022037372109 166.15957172494322 101.00000000000034
    vertex 578.8558694730392 165.27685057393964 9.000000000000398
    vertex 577.1022037372109 166.15957172494322 9.000000000000398
  endloop
endfacet
facet normal 0.44961132965466777 0.8932243011954847 2.533589390681251e-16
  outer loop
    vertex 578.8558694730392 165.27685057393964 9.000000000000398
    vertex 577.1022037372109 166.15957172494322 101.00000000000034
    vertex 578.8558694730392 165.27685057393964 101.00000000000034
  endloop
endfacet
facet normal 0.40524131400499946 0.9142097557035265 2.4977770369299855e-16
  outer loop
    vertex 575.307337294603 166.95518130045704 101.00000000000034
    vertex 577.1022037372109 166.15957172494322 9.000000000000398
    vertex 575.307337294603 166.95518130045704 9.000000000000398
  endloop
endfacet
facet normal 0.40524131400499946 0.9142097557035265 2.4977770369299855e-16
  outer loop
    vertex 577.1022037372109 166.15957172494322 9.000000000000398
    vertex 575.307337294603 166.95518130045704 101.00000000000034
    vertex 577.1022037372109 166.15957172494322 101.00000000000034
  endloop
endfacet
facet normal 0.3598950365349035 0.9329927988347716 2.4559473195172727e-16
  outer loop
    vertex 573.4755941356883 167.66176260732618 101.00000000000034
    vertex 575.307337294603 166.95518130045704 9.000000000000398
    vertex 573.4755941356883 167.66176260732618 9.000000000000398
  endloop
endfacet
facet normal 0.3598950365349035 0.9329927988347716 2.4559473195172727e-16
  outer loop
    vertex 575.307337294603 166.95518130045704 9.000000000000398
    vertex 573.4755941356883 167.66176260732618 101.00000000000034
    vertex 575.307337294603 166.95518130045704 101.00000000000034
  endloop
endfacet
facet normal 0.31368174039901303 0.9495281805929966 2.4082010098965704e-16
  outer loop
    vertex 571.6113870901784 168.27761342929384 101.00000000000034
    vertex 573.4755941356883 167.66176260732618 9.000000000000398
    vertex 571.6113870901784 168.27761342929384 9.000000000000398
  endloop
endfacet
facet normal 0.31368174039901303 0.9495281805929966 2.4082010098965704e-16
  outer loop
    vertex 573.4755941356883 167.66176260732618 9.000000000000398
    vertex 571.6113870901784 168.27761342929384 101.00000000000034
    vertex 573.4755941356883 167.66176260732618 101.00000000000034
  endloop
endfacet
facet normal 0.26671275747486234 0.9637760657954499 2.354653133109141e-16
  outer loop
    vertex 569.7192071961305 168.80125012778717 101.00000000000034
    vertex 571.6113870901784 168.27761342929384 9.000000000000398
    vertex 569.7192071961305 168.80125012778717 9.000000000000398
  endloop
endfacet
facet normal 0.26671275747486234 0.9637760657954499 2.354653133109141e-16
  outer loop
    vertex 571.6113870901784 168.27761342929384 9.000000000000398
    vertex 569.7192071961305 168.80125012778717 101.00000000000034
    vertex 571.6113870901784 168.27761342929384 101.00000000000034
  endloop
endfacet
facet normal 0.21910124015685103 0.9757021300385328 2.295432690680989e-16
  outer loop
    vertex 567.8036128806442 169.23141121613477 101.00000000000034
    vertex 569.7192071961305 168.80125012778717 9.000000000000398
    vertex 567.8036128806442 169.23141121613477 9.000000000000398
  endloop
endfacet
facet normal 0.21910124015685103 0.9757021300385328 2.295432690680989e-16
  outer loop
    vertex 569.7192071961305 168.80125012778717 9.000000000000398
    vertex 567.8036128806442 169.23141121613477 101.00000000000034
    vertex 569.7192071961305 168.80125012778717 101.00000000000034
  endloop
endfacet
facet normal 0.17096188876042973 0.9852776423889189 2.2306823498450136e-16
  outer loop
    vertex 565.8692189782147 169.56706039859685 101.00000000000034
    vertex 567.8036128806442 169.23141121613477 9.000000000000398
    vertex 565.8692189782147 169.56706039859685 9.000000000000398
  endloop
endfacet
facet normal 0.17096188876042973 0.9852776423889189 2.2306823498450136e-16
  outer loop
    vertex 567.8036128806442 169.23141121613477 9.000000000000398
    vertex 565.8692189782147 169.56706039859685 101.00000000000034
    vertex 567.8036128806442 169.23141121613477 101.00000000000034
  endloop
endfacet
facet normal 0.12241067519927129 0.9924795345987033 2.1605580998432636e-16
  outer loop
    vertex 563.9206856131822 169.80738906689368 101.00000000000034
    vertex 565.8692189782147 169.56706039859685 9.000000000000398
    vertex 563.9206856131822 169.80738906689368 9.000000000000398
  endloop
endfacet
facet normal 0.12241067519927129 0.9924795345987033 2.1605580998432636e-16
  outer loop
    vertex 565.8692189782147 169.56706039859685 9.000000000000398
    vertex 563.9206856131822 169.80738906689368 101.00000000000034
    vertex 565.8692189782147 169.56706039859685 101.00000000000034
  endloop
endfacet
facet normal 0.07356456359967457 0.9972904566786898 2.0852288761364782e-16
  outer loop
    vertex 561.962706973096 169.95181824821273 101.00000000000034
    vertex 563.9206856131822 169.80738906689368 9.000000000000398
    vertex 561.962706973096 169.95181824821273 9.000000000000398
  endloop
endfacet
facet normal 0.07356456359967457 0.9972904566786898 2.0852288761364782e-16
  outer loop
    vertex 563.9206856131822 169.80738906689368 9.000000000000398
    vertex 561.962706973096 169.95181824821273 101.00000000000034
    vertex 563.9206856131822 169.80738906689368 101.00000000000034
  endloop
endfacet
facet normal 0.024541228522912524 0.9996988186962044 2.004876153422662e-16
  outer loop
    vertex 559.9999999999999 170.00000000000583 101.00000000000034
    vertex 561.962706973096 169.95181824821273 9.000000000000398
    vertex 559.9999999999999 170.00000000000583 9.000000000000398
  endloop
endfacet
facet normal 0.024541228522912524 0.9996988186962044 2.004876153422662e-16
  outer loop
    vertex 561.962706973096 169.95181824821273 9.000000000000398
    vertex 559.9999999999999 170.00000000000583 101.00000000000034
    vertex 561.962706973096 169.95181824821273 101.00000000000034
  endloop
endfacet
facet normal -1.8047785488300066e-13 1.0 1.9628760124920746e-16
  outer loop
    vertex 557.9999999999992 170.00000000000546 101.00000000000034
    vertex 559.9999999999999 170.00000000000583 9.000000000000398
    vertex 557.9999999999992 170.00000000000546 9.000000000000398
  endloop
endfacet
facet normal -1.8047785488300066e-13 1.0 1.9628760124920746e-16
  outer loop
    vertex 559.9999999999999 170.00000000000583 9.000000000000398
    vertex 557.9999999999992 170.00000000000546 101.00000000000034
    vertex 559.9999999999999 170.00000000000583 101.00000000000034
  endloop
endfacet
facet normal -0.7071067811865528 -0.7071067811865422 0.0
  outer loop
    vertex 566.1715216686002 167.48533258089756 101.00000000000034
    vertex 597.4853325808916 136.17152166860564 9.00000000000031
    vertex 597.4853325808916 136.17152166860564 101.00000000000034
  endloop
endfacet
facet normal -0.7071067811865528 -0.7071067811865422 0.0
  outer loop
    vertex 597.4853325808916 136.17152166860564 9.00000000000031
    vertex 566.1715216686002 167.48533258089756 101.00000000000034
    vertex 566.1715216686002 167.48533258089756 9.00000000000031
  endloop
endfacet
endsolid DIY Perks 3D Printed Speaker - Sketchup Model
