solid DIY Perks 3D Printed Speaker - Sketchup Model
facet normal -4.616875357473804e-15 1.6053802797047507e-29 0.9999999999999999
  outer loop
    vertex 17.462595989129902 -290.168347972192 1.8000000000002025
    vertex 15.46259598912978 -288.1683479721922 1.8000000000002025
    vertex 15.46259598912978 -290.168347972192 1.8000000000002025
  endloop
endfacet
facet normal -4.616875357473804e-15 1.6053802797047507e-29 0.9999999999999999
  outer loop
    vertex 15.46259598912978 -288.1683479721922 1.8000000000002025
    vertex 17.462595989129902 -290.168347972192 1.8000000000002025
    vertex 15.46259598912978 -286.16834797219263 1.8000000000002025
  endloop
endfacet
facet normal -4.616875357473804e-15 1.6053802797047507e-29 0.9999999999999999
  outer loop
    vertex 15.46259598912978 -286.16834797219263 1.8000000000002025
    vertex 17.462595989129902 -290.168347972192 1.8000000000002025
    vertex 15.46259598912978 -284.1683479721925 1.8000000000002025
  endloop
endfacet
facet normal -4.616875357473804e-15 1.6053802797047507e-29 0.9999999999999999
  outer loop
    vertex 15.46259598912978 -284.1683479721925 1.8000000000002025
    vertex 17.462595989129902 -290.168347972192 1.8000000000002025
    vertex 17.462595989129902 -284.1683479721925 1.8000000000002025
  endloop
endfacet
facet normal -4.616875357473804e-15 1.6053802797047507e-29 0.9999999999999999
  outer loop
    vertex 15.46259598912978 -288.1683479721922 1.8000000000002025
    vertex 9.46259598912999 -286.1683479721923 1.8000000000001672
    vertex 9.46259598912999 -288.1683479721922 1.8000000000001672
  endloop
endfacet
facet normal -4.616875357473804e-15 1.6053802797047507e-29 0.9999999999999999
  outer loop
    vertex 9.46259598912999 -286.1683479721923 1.8000000000001672
    vertex 15.46259598912978 -288.1683479721922 1.8000000000002025
    vertex 15.46259598912978 -286.16834797219263 1.8000000000002025
  endloop
endfacet
facet normal -4.616875357473804e-15 1.6053802797047507e-29 0.9999999999999999
  outer loop
    vertex 9.46259598912999 -290.168347972192 1.8000000000001672
    vertex 7.462595989129866 -284.1683479721925 1.8000000000001672
    vertex 7.462595989129866 -290.168347972192 1.8000000000001672
  endloop
endfacet
facet normal -4.616875357473804e-15 1.6053802797047507e-29 0.9999999999999999
  outer loop
    vertex 7.462595989129866 -284.1683479721925 1.8000000000001672
    vertex 9.46259598912999 -290.168347972192 1.8000000000001672
    vertex 9.46259598912999 -284.1683479721925 1.8000000000001672
  endloop
endfacet
facet normal -4.616875357473804e-15 1.6053802797047507e-29 0.9999999999999999
  outer loop
    vertex 9.46259598912999 -284.1683479721925 1.8000000000001672
    vertex 9.46259598912999 -290.168347972192 1.8000000000001672
    vertex 9.46259598912999 -288.1683479721922 1.8000000000001672
  endloop
endfacet
facet normal -4.616875357473804e-15 1.6053802797047507e-29 0.9999999999999999
  outer loop
    vertex 9.46259598912999 -284.1683479721925 1.8000000000001672
    vertex 9.46259598912999 -288.1683479721922 1.8000000000001672
    vertex 9.46259598912999 -286.1683479721923 1.8000000000001672
  endloop
endfacet
facet normal 0.9938837346736189 3.3796814243262967e-18 -0.11043152607484596
  outer loop
    vertex 9.262595989129961 -284.3683479721925 1.6102008615348494e-13
    vertex 9.46259598912999 -286.1683479721923 1.8000000000001672
    vertex 9.262595989129961 -286.36834797219234 1.6102008615348494e-13
  endloop
endfacet
facet normal 0.9938837346736189 3.3796814243262967e-18 -0.11043152607484596
  outer loop
    vertex 9.46259598912999 -286.1683479721923 1.8000000000001672
    vertex 9.262595989129961 -284.3683479721925 1.6102008615348494e-13
    vertex 9.46259598912999 -284.1683479721925 1.8000000000001672
  endloop
endfacet
facet normal 0.9938837346736189 -3.3796814243262193e-18 -0.11043152607484592
  outer loop
    vertex 9.262595989129961 -289.968347972192 1.6102008615348494e-13
    vertex 9.46259598912999 -288.1683479721922 1.8000000000001672
    vertex 9.46259598912999 -290.168347972192 1.8000000000001672
  endloop
endfacet
facet normal 0.9938837346736189 -3.3796814243262193e-18 -0.11043152607484592
  outer loop
    vertex 9.46259598912999 -288.1683479721922 1.8000000000001672
    vertex 9.262595989129961 -289.968347972192 1.6102008615348494e-13
    vertex 9.262595989129961 -287.96834797219213 1.6102008615348494e-13
  endloop
endfacet
facet normal -6.123084946000042e-17 0.9938837346736189 -0.11043152607484603
  outer loop
    vertex 7.662595989129893 -284.3683479721925 1.6327605933952326e-13
    vertex 9.46259598912999 -284.1683479721925 1.8000000000001672
    vertex 9.262595989129961 -284.3683479721925 1.6102008615348494e-13
  endloop
endfacet
facet normal -6.123084946000042e-17 0.9938837346736189 -0.11043152607484603
  outer loop
    vertex 9.46259598912999 -284.1683479721925 1.8000000000001672
    vertex 7.662595989129893 -284.3683479721925 1.6327605933952326e-13
    vertex 7.462595989129866 -284.1683479721925 1.8000000000001672
  endloop
endfacet
facet normal -0.9938837346736189 0.0 -0.11043152607484603
  outer loop
    vertex 7.462595989129866 -284.1683479721925 1.8000000000001672
    vertex 7.662595989129893 -289.968347972192 1.6327605933952326e-13
    vertex 7.462595989129866 -290.168347972192 1.8000000000001672
  endloop
endfacet
facet normal -0.9938837346736189 0.0 -0.11043152607484603
  outer loop
    vertex 7.662595989129893 -289.968347972192 1.6327605933952326e-13
    vertex 7.462595989129866 -284.1683479721925 1.8000000000001672
    vertex 7.662595989129893 -284.3683479721925 1.6327605933952326e-13
  endloop
endfacet
facet normal 4.626507510430193e-15 5.831732156002943e-17 -0.9999999999999999
  outer loop
    vertex 17.262595989129878 -284.3683479721925 1.9711565713009805e-13
    vertex 15.662595989129732 -286.36834797219257 1.9880763701962676e-13
    vertex 15.662595989129732 -284.3683479721925 1.9880763701962676e-13
  endloop
endfacet
facet normal 4.626507510430193e-15 5.831732156002943e-17 -0.9999999999999999
  outer loop
    vertex 15.662595989129732 -286.36834797219257 1.9880763701962676e-13
    vertex 17.262595989129878 -284.3683479721925 1.9711565713009805e-13
    vertex 15.662595989129732 -287.96834797219213 1.976796504266076e-13
  endloop
endfacet
facet normal 4.626507510430193e-15 5.831732156002943e-17 -0.9999999999999999
  outer loop
    vertex 15.662595989129732 -287.96834797219213 1.976796504266076e-13
    vertex 17.262595989129878 -284.3683479721925 1.9711565713009805e-13
    vertex 15.662595989129732 -289.968347972192 1.976796504266076e-13
  endloop
endfacet
facet normal 4.626507510430193e-15 5.831732156002943e-17 -0.9999999999999999
  outer loop
    vertex 15.662595989129732 -289.968347972192 1.976796504266076e-13
    vertex 17.262595989129878 -284.3683479721925 1.9711565713009805e-13
    vertex 17.262595989129878 -289.968347972192 1.9711565713009805e-13
  endloop
endfacet
facet normal 4.626507510430193e-15 5.831732156002943e-17 -0.9999999999999999
  outer loop
    vertex 15.662595989129732 -286.36834797219257 1.9880763701962676e-13
    vertex 9.262595989129961 -287.96834797219213 1.6102008615348494e-13
    vertex 9.262595989129961 -286.36834797219234 1.6102008615348494e-13
  endloop
endfacet
facet normal 4.626507510430193e-15 5.831732156002943e-17 -0.9999999999999999
  outer loop
    vertex 9.262595989129961 -287.96834797219213 1.6102008615348494e-13
    vertex 15.662595989129732 -286.36834797219257 1.9880763701962676e-13
    vertex 15.662595989129732 -287.96834797219213 1.976796504266076e-13
  endloop
endfacet
facet normal 4.626507510430193e-15 5.831732156002943e-17 -0.9999999999999999
  outer loop
    vertex 9.262595989129961 -284.3683479721925 1.6102008615348494e-13
    vertex 7.662595989129893 -289.968347972192 1.6327605933952326e-13
    vertex 7.662595989129893 -284.3683479721925 1.6327605933952326e-13
  endloop
endfacet
facet normal 4.626507510430193e-15 5.831732156002943e-17 -0.9999999999999999
  outer loop
    vertex 7.662595989129893 -289.968347972192 1.6327605933952326e-13
    vertex 9.262595989129961 -284.3683479721925 1.6102008615348494e-13
    vertex 9.262595989129961 -289.968347972192 1.6102008615348494e-13
  endloop
endfacet
facet normal 4.626507510430193e-15 5.831732156002943e-17 -0.9999999999999999
  outer loop
    vertex 9.262595989129961 -289.968347972192 1.6102008615348494e-13
    vertex 9.262595989129961 -284.3683479721925 1.6102008615348494e-13
    vertex 9.262595989129961 -286.36834797219234 1.6102008615348494e-13
  endloop
endfacet
facet normal 4.626507510430193e-15 5.831732156002943e-17 -0.9999999999999999
  outer loop
    vertex 9.262595989129961 -289.968347972192 1.6102008615348494e-13
    vertex 9.262595989129961 -286.36834797219234 1.6102008615348494e-13
    vertex 9.262595989129961 -287.96834797219213 1.6102008615348494e-13
  endloop
endfacet
facet normal -6.123084946000255e-17 -0.9938837346736189 -0.11043152607484603
  outer loop
    vertex 9.46259598912999 -290.168347972192 1.8000000000001672
    vertex 7.662595989129893 -289.968347972192 1.6327605933952326e-13
    vertex 9.262595989129961 -289.968347972192 1.6102008615348494e-13
  endloop
endfacet
facet normal -6.123084946000255e-17 -0.9938837346736189 -0.11043152607484603
  outer loop
    vertex 7.662595989129893 -289.968347972192 1.6327605933952326e-13
    vertex 9.46259598912999 -290.168347972192 1.8000000000001672
    vertex 7.462595989129866 -290.168347972192 1.8000000000001672
  endloop
endfacet
facet normal 6.421699171858455e-16 -0.9938837346736189 -0.11043152607484602
  outer loop
    vertex 15.662595989129732 -287.96834797219213 1.976796504266076e-13
    vertex 9.46259598912999 -288.1683479721922 1.8000000000001672
    vertex 9.262595989129961 -287.96834797219213 1.6102008615348494e-13
  endloop
endfacet
facet normal 6.421699171858455e-16 -0.9938837346736189 -0.11043152607484602
  outer loop
    vertex 9.46259598912999 -288.1683479721922 1.8000000000001672
    vertex 15.662595989129732 -287.96834797219213 1.976796504266076e-13
    vertex 15.46259598912978 -288.1683479721922 1.8000000000002025
  endloop
endfacet
facet normal -0.9938837346736189 0.0 -0.11043152607484603
  outer loop
    vertex 15.46259598912978 -288.1683479721922 1.8000000000002025
    vertex 15.662595989129732 -289.968347972192 1.976796504266076e-13
    vertex 15.46259598912978 -290.168347972192 1.8000000000002025
  endloop
endfacet
facet normal -0.9938837346736189 0.0 -0.11043152607484603
  outer loop
    vertex 15.662595989129732 -289.968347972192 1.976796504266076e-13
    vertex 15.46259598912978 -288.1683479721922 1.8000000000002025
    vertex 15.662595989129732 -287.96834797219213 1.976796504266076e-13
  endloop
endfacet
facet normal -2.3550326715385128e-17 -0.9938837346736189 -0.11043152607484603
  outer loop
    vertex 17.462595989129902 -290.168347972192 1.8000000000002025
    vertex 15.662595989129732 -289.968347972192 1.976796504266076e-13
    vertex 17.262595989129878 -289.968347972192 1.9711565713009805e-13
  endloop
endfacet
facet normal -2.3550326715385128e-17 -0.9938837346736189 -0.11043152607484603
  outer loop
    vertex 15.662595989129732 -289.968347972192 1.976796504266076e-13
    vertex 17.462595989129902 -290.168347972192 1.8000000000002025
    vertex 15.46259598912978 -290.168347972192 1.8000000000002025
  endloop
endfacet
facet normal 0.9938837346736189 0.0 -0.11043152607484596
  outer loop
    vertex 17.262595989129878 -289.968347972192 1.9711565713009805e-13
    vertex 17.462595989129902 -284.1683479721925 1.8000000000002025
    vertex 17.462595989129902 -290.168347972192 1.8000000000002025
  endloop
endfacet
facet normal 0.9938837346736189 0.0 -0.11043152607484596
  outer loop
    vertex 17.462595989129902 -284.1683479721925 1.8000000000002025
    vertex 17.262595989129878 -289.968347972192 1.9711565713009805e-13
    vertex 17.262595989129878 -284.3683479721925 1.9711565713009805e-13
  endloop
endfacet
facet normal -0.9938837346736189 -1.6898407121626586e-18 -0.1104315260748461
  outer loop
    vertex 15.46259598912978 -286.16834797219263 1.8000000000002025
    vertex 15.662595989129732 -284.3683479721925 1.9880763701962676e-13
    vertex 15.662595989129732 -286.36834797219257 1.9880763701962676e-13
  endloop
endfacet
facet normal -0.9938837346736189 -1.6898407121626586e-18 -0.1104315260748461
  outer loop
    vertex 15.662595989129732 -284.3683479721925 1.9880763701962676e-13
    vertex 15.46259598912978 -286.16834797219263 1.8000000000002025
    vertex 15.46259598912978 -284.1683479721925 1.8000000000002025
  endloop
endfacet
facet normal -6.123084946000152e-17 0.9938837346736189 -0.11043152607484606
  outer loop
    vertex 15.662595989129732 -284.3683479721925 1.9880763701962676e-13
    vertex 17.462595989129902 -284.1683479721925 1.8000000000002025
    vertex 17.262595989129878 -284.3683479721925 1.9711565713009805e-13
  endloop
endfacet
facet normal -6.123084946000152e-17 0.9938837346736189 -0.11043152607484606
  outer loop
    vertex 17.462595989129902 -284.1683479721925 1.8000000000002025
    vertex 15.662595989129732 -284.3683479721925 1.9880763701962676e-13
    vertex 15.46259598912978 -284.1683479721925 1.8000000000002025
  endloop
endfacet
facet normal 4.76197398420841e-14 0.9938837346736189 -0.11043152607484602
  outer loop
    vertex 9.46259598912999 -286.1683479721923 1.8000000000001672
    vertex 15.662595989129732 -286.36834797219257 1.9880763701962676e-13
    vertex 9.262595989129961 -286.36834797219234 1.6102008615348494e-13
  endloop
endfacet
facet normal 4.76197398420841e-14 0.9938837346736189 -0.11043152607484602
  outer loop
    vertex 15.662595989129732 -286.36834797219257 1.9880763701962676e-13
    vertex 9.46259598912999 -286.1683479721923 1.8000000000001672
    vertex 15.46259598912978 -286.16834797219263 1.8000000000002025
  endloop
endfacet
endsolid DIY Perks 3D Printed Speaker - Sketchup Model
